<svg width="12" height="12" viewBox="0 0 12 12" fill="none" xmlns="http://www.w3.org/2000/svg">
<mask id="mask0_3074_16517" style="mask-type:alpha" maskUnits="userSpaceOnUse" x="0" y="1" width="12" height="10">
<path d="M4.29866 4.35797C4.29866 5.04831 3.76142 5.60794 3.09871 5.60794C2.43599 5.60794 1.89876 5.04831 1.89876 4.35797C1.89876 3.66763 2.43599 3.108 3.09871 3.108C3.76142 3.108 4.29866 3.66763 4.29866 4.35797Z" fill="white"/>
<path fill-rule="evenodd" clip-rule="evenodd" d="M0.000488281 2.24997C0.000488281 1.55963 0.537726 1 1.20044 1H10.8001C11.4628 1 12 1.55963 12 2.24997V9.74978C12 10.4401 11.4628 10.9998 10.8001 10.9998H10.008C10.0054 10.9998 10.0027 10.9998 10.0001 10.9998H1.47392C1.47166 10.9998 1.4694 10.9998 1.46714 10.9998H1.20044C0.537726 10.9998 0.000488281 10.4401 0.000488281 9.74978V2.24997ZM1.20044 1.93748H10.8001C10.9657 1.93748 11.1001 2.07738 11.1001 2.24997V6.14495L8.49299 3.49995L4.05763 7.99984L2.75109 6.67429L0.900453 8.55186V2.24997C0.900453 2.07738 1.03476 1.93748 1.20044 1.93748Z" fill="white"/>
</mask>
<g mask="url(#mask0_3074_16517)">
<rect width="11.9995" height="11.9997" fill="white"/>
</g>
</svg>
