<svg width="16" height="16" viewBox="0 0 16 16" fill="none" xmlns="http://www.w3.org/2000/svg">
<mask id="mask0_2973_2899" style="mask-type:alpha" maskUnits="userSpaceOnUse" x="0" y="1" width="16" height="14">
<path d="M5.73139 5.81128C5.73139 6.73173 5.01507 7.47791 4.13145 7.47791C3.24783 7.47791 2.53151 6.73173 2.53151 5.81128C2.53151 4.89083 3.24783 4.14466 4.13145 4.14466C5.01507 4.14466 5.73139 4.89083 5.73139 5.81128Z" fill="#006FFD"/>
<path fill-rule="evenodd" clip-rule="evenodd" d="M0.000488281 3.00061C0.000488281 2.08016 0.716805 1.33398 1.60043 1.33398H14.3999C15.2835 1.33398 15.9999 2.08016 15.9999 3.00061V13.0004C15.9999 13.9208 15.2835 14.667 14.3999 14.667H13.3438C13.3403 14.667 13.3368 14.667 13.3333 14.667H1.96506C1.96205 14.667 1.95904 14.667 1.95603 14.667H1.60043C0.716805 14.667 0.000488281 13.9208 0.000488281 13.0004V3.00061ZM1.60043 2.58395H14.3999C14.6208 2.58395 14.7999 2.7705 14.7999 3.00061V8.19391L11.3238 4.66725L5.41001 10.6671L3.66796 8.89971L1.20044 11.4031V3.00061C1.20044 2.7705 1.37952 2.58395 1.60043 2.58395Z" fill="#006FFD"/>
</mask>
<g mask="url(#mask0_2973_2899)">
<rect x="0.000488281" width="15.9994" height="15.9996" fill="#8F9098"/>
</g>
</svg>
