<svg width="16" height="16" viewBox="0 0 16 16" fill="none" xmlns="http://www.w3.org/2000/svg">
<path d="M2.78648 16C2.22289 16 1.74486 15.8038 1.35238 15.4113C0.959909 15.0188 0.763672 14.5408 0.763672 13.9772V3.54945C0.763672 2.98586 0.959909 2.50783 1.35238 2.11536C1.74486 1.72288 2.22289 1.52664 2.78648 1.52664H3.42042V0H5.19514V1.52664H10.8056V0H12.5803V1.52664H13.2142C13.7778 1.52664 14.2558 1.72288 14.6483 2.11536C15.0408 2.50783 15.237 2.98586 15.237 3.54945V13.9772C15.237 14.5408 15.0408 15.0188 14.6483 15.4113C14.2558 15.8038 13.7778 16 13.2142 16H2.78648ZM2.78648 13.9772H13.2142V6.47336H2.78648V13.9772ZM2.78648 4.94671H13.2142V3.54945H2.78648V4.94671ZM8.00035 9.6129C7.75965 9.6129 7.55788 9.53148 7.39504 9.36864C7.23219 9.2058 7.15077 9.00402 7.15077 8.76332C7.15077 8.52262 7.23219 8.32085 7.39504 8.15801C7.55788 7.99517 7.75965 7.91374 8.00035 7.91374C8.24105 7.91374 8.44282 7.99517 8.60567 8.15801C8.76851 8.32085 8.84993 8.52262 8.84993 8.76332C8.84993 9.00402 8.76851 9.2058 8.60567 9.36864C8.44282 9.53148 8.24105 9.6129 8.00035 9.6129ZM4.94706 9.6129C4.70636 9.6129 4.50459 9.53148 4.34175 9.36864C4.1789 9.2058 4.09748 9.00402 4.09748 8.76332C4.09748 8.52262 4.1789 8.32085 4.34175 8.15801C4.50459 7.99517 4.70636 7.91374 4.94706 7.91374C5.18776 7.91374 5.38953 7.99517 5.55238 8.15801C5.71522 8.32085 5.79664 8.52262 5.79664 8.76332C5.79664 9.00402 5.71522 9.2058 5.55238 9.36864C5.38953 9.53148 5.18776 9.6129 4.94706 9.6129ZM11.0536 9.6129C10.823 9.6129 10.6237 9.53148 10.4558 9.36864C10.288 9.2058 10.2041 9.00402 10.2041 8.76332C10.2041 8.52262 10.288 8.32085 10.4558 8.15801C10.6237 7.99517 10.8248 7.91374 11.059 7.91374C11.2933 7.91374 11.4926 7.99517 11.6569 8.15801C11.8211 8.32085 11.9032 8.52262 11.9032 8.76332C11.9032 9.00402 11.8218 9.2058 11.659 9.36864C11.4961 9.53148 11.2943 9.6129 11.0536 9.6129ZM8.00035 12.6662C7.75965 12.6662 7.55788 12.5823 7.39504 12.4145C7.23219 12.2466 7.15077 12.0455 7.15077 11.8113C7.15077 11.5769 7.23219 11.3776 7.39504 11.2134C7.55788 11.0492 7.75965 10.967 8.00035 10.967C8.24105 10.967 8.44282 11.0485 8.60567 11.2113C8.76851 11.3741 8.84993 11.5759 8.84993 11.8166C8.84993 12.0473 8.76851 12.2466 8.60567 12.4145C8.44282 12.5823 8.24105 12.6662 8.00035 12.6662ZM4.94706 12.6662C4.70636 12.6662 4.50459 12.5823 4.34175 12.4145C4.1789 12.2466 4.09748 12.0455 4.09748 11.8113C4.09748 11.5769 4.1789 11.3776 4.34175 11.2134C4.50459 11.0492 4.70636 10.967 4.94706 10.967C5.18776 10.967 5.38953 11.0485 5.55238 11.2113C5.71522 11.3741 5.79664 11.5759 5.79664 11.8166C5.79664 12.0473 5.71522 12.2466 5.55238 12.4145C5.38953 12.5823 5.18776 12.6662 4.94706 12.6662ZM11.0536 12.6662C10.823 12.6662 10.6237 12.5823 10.4558 12.4145C10.288 12.2466 10.2041 12.0455 10.2041 11.8113C10.2041 11.5769 10.288 11.3776 10.4558 11.2134C10.6237 11.0492 10.8248 10.967 11.059 10.967C11.2933 10.967 11.4926 11.0485 11.6569 11.2113C11.8211 11.3741 11.9032 11.5759 11.9032 11.8166C11.9032 12.0473 11.8218 12.2466 11.659 12.4145C11.4961 12.5823 11.2943 12.6662 11.0536 12.6662Z" fill="#006FFD"/>
</svg>
