<svg width="18" height="18" viewBox="0 0 18 18" fill="none" xmlns="http://www.w3.org/2000/svg">
<path fill-rule="evenodd" clip-rule="evenodd" d="M1.4545 1.4545C1.89384 1.01517 2.60616 1.01517 3.0455 1.4545L16.5455 14.9545C16.9848 15.3938 16.9848 16.1062 16.5455 16.5455C16.1062 16.9848 15.3938 16.9848 14.9545 16.5455L1.4545 3.0455C1.01517 2.60616 1.01517 1.89384 1.4545 1.4545Z" fill="#ED3241"/>
<path fill-rule="evenodd" clip-rule="evenodd" d="M16.5455 1.4545C16.1062 1.01517 15.3938 1.01517 14.9545 1.4545L1.45451 14.9545C1.01517 15.3938 1.01517 16.1062 1.45451 16.5455C1.89385 16.9848 2.60616 16.9848 3.0455 16.5455L16.5455 3.0455C16.9848 2.60616 16.9848 1.89384 16.5455 1.4545Z" fill="#ED3241"/>
</svg>
