<svg width="40" height="40" viewBox="0 0 40 40" fill="none" xmlns="http://www.w3.org/2000/svg">
<path fill-rule="evenodd" clip-rule="evenodd" d="M34 3.3335C35.5304 3.33341 37.003 3.91815 38.1165 4.96806C39.23 6.01798 39.9002 7.45371 39.99 8.9815L40 9.3335V29.3335C40.0001 30.8639 39.4153 32.3365 38.3654 33.45C37.3155 34.5635 35.8798 35.2337 34.352 35.3235L34 35.3335H6C4.46958 35.3336 2.99697 34.7488 1.88348 33.6989C0.769986 32.649 0.099785 31.2133 0.0100002 29.6855L9.32089e-09 29.3335V9.3335C-8.52434e-05 7.80307 0.58465 6.33047 1.63457 5.21697C2.68448 4.10348 4.12021 3.43328 5.648 3.3435L6 3.3335H34ZM36 15.3335H4V29.3335C4.00006 29.8234 4.17991 30.2962 4.50543 30.6622C4.83095 31.0283 5.2795 31.2622 5.766 31.3195L6 31.3335H34C34.4899 31.3334 34.9627 31.1536 35.3287 30.8281C35.6948 30.5025 35.9287 30.054 35.986 29.5675L36 29.3335V15.3335ZM25.414 18.2615L29.07 21.9195C29.4449 22.2946 29.6556 22.8032 29.6556 23.3335C29.6556 23.8638 29.4449 24.3724 29.07 24.7475L25.414 28.4035C25.2295 28.5945 25.0088 28.7469 24.7648 28.8517C24.5208 28.9565 24.2584 29.0117 23.9928 29.014C23.7272 29.0163 23.4639 28.9657 23.2181 28.8651C22.9723 28.7646 22.749 28.6161 22.5612 28.4283C22.3734 28.2405 22.2249 28.0172 22.1244 27.7714C22.0238 27.5256 21.9732 27.2623 21.9755 26.9967C21.9778 26.7311 22.033 26.4687 22.1378 26.2247C22.2426 25.9807 22.395 25.76 22.586 25.5755L22.826 25.3335H14C13.4696 25.3335 12.9609 25.1228 12.5858 24.7477C12.2107 24.3726 12 23.8639 12 23.3335C12 22.8031 12.2107 22.2944 12.5858 21.9193C12.9609 21.5442 13.4696 21.3335 14 21.3335H22.828L22.586 21.0915C22.2107 20.7165 21.9998 20.2077 21.9996 19.6772C21.9994 19.1467 22.21 18.6378 22.585 18.2625C22.96 17.8872 23.4688 17.6763 23.9993 17.6761C24.5298 17.6759 25.0387 17.8865 25.414 18.2615ZM34 7.3335H6C5.46957 7.3335 4.96086 7.54421 4.58579 7.91928C4.21071 8.29436 4 8.80306 4 9.3335V11.3335H36V9.3335C36 8.80306 35.7893 8.29436 35.4142 7.91928C35.0391 7.54421 34.5304 7.3335 34 7.3335Z" fill="#006FFD"/>
</svg>
