<svg width="44" height="44" viewBox="0 0 44 44" fill="none" xmlns="http://www.w3.org/2000/svg">
<path d="M22 0.25C34.0122 0.25 43.75 9.98781 43.75 22C43.75 34.0122 34.0122 43.75 22 43.75C9.98781 43.75 0.25 34.0122 0.25 22C0.25 9.98781 9.98781 0.25 22 0.25Z" fill="#ED3241"/>
<path d="M22 0.25C34.0122 0.25 43.75 9.98781 43.75 22C43.75 34.0122 34.0122 43.75 22 43.75C9.98781 43.75 0.25 34.0122 0.25 22C0.25 9.98781 9.98781 0.25 22 0.25Z" stroke="#C5C6CC" stroke-width="0.5"/>
<path d="M12.8281 16.3975H31.1615M19.7031 20.879V27.6012M24.2865 20.879V27.6012M13.974 16.3975L15.1198 29.8419C15.1198 30.4362 15.3612 31.0062 15.791 31.4264C16.2208 31.8466 16.8037 32.0827 17.4115 32.0827H26.5781C27.1859 32.0827 27.7688 31.8466 28.1986 31.4264C28.6283 31.0062 28.8698 30.4362 28.8698 29.8419L30.0156 16.3975M18.5573 16.3975V13.0364C18.5573 12.7392 18.678 12.4543 18.8929 12.2442C19.1078 12.0341 19.3992 11.916 19.7031 11.916H24.2865C24.5904 11.916 24.8818 12.0341 25.0967 12.2442C25.3116 12.4543 25.4323 12.7392 25.4323 13.0364V16.3975" stroke="white" stroke-width="1.5" stroke-linecap="round" stroke-linejoin="round"/>
</svg>
