<svg width="44" height="44" viewBox="0 0 44 44" fill="none" xmlns="http://www.w3.org/2000/svg">
<path d="M22 0.25C34.0122 0.25 43.75 9.98781 43.75 22C43.75 34.0122 34.0122 43.75 22 43.75C9.98781 43.75 0.25 34.0122 0.25 22C0.25 9.98781 9.98781 0.25 22 0.25Z" fill="#D4D6DD"/>
<path d="M22 0.25C34.0122 0.25 43.75 9.98781 43.75 22C43.75 34.0122 34.0122 43.75 22 43.75C9.98781 43.75 0.25 34.0122 0.25 22C0.25 9.98781 9.98781 0.25 22 0.25Z" stroke="#C5C6CC" stroke-width="0.5"/>
<path d="M12.829 16.3975H31.1623M19.704 20.879V27.6012M24.2873 20.879V27.6012M13.9748 16.3975L15.1206 29.8419C15.1206 30.4362 15.3621 31.0062 15.7919 31.4264C16.2216 31.8466 16.8045 32.0827 17.4123 32.0827H26.579C27.1868 32.0827 27.7697 31.8466 28.1994 31.4264C28.6292 31.0062 28.8706 30.4362 28.8706 29.8419L30.0165 16.3975M18.5581 16.3975V13.0364C18.5581 12.7392 18.6789 12.4543 18.8938 12.2442C19.1086 12.0341 19.4001 11.916 19.704 11.916H24.2873C24.5912 11.916 24.8827 12.0341 25.0975 12.2442C25.3124 12.4543 25.4331 12.7392 25.4331 13.0364V16.3975" stroke="#494A50" stroke-width="2" stroke-linecap="round" stroke-linejoin="round"/>
</svg>
