<svg width="20" height="20" viewBox="0 0 20 20" fill="none" xmlns="http://www.w3.org/2000/svg">
<path d="M12.0782 10.2592L13.4275 17.8517H15.4515C16.1261 17.8517 16.1261 19.1608 15.4515 19.1608H4.65701C3.98235 19.1608 3.98235 17.8517 4.65701 17.8517H6.68097L8.03028 10.2592C9.37959 11.1493 10.7289 11.1493 12.0782 10.2592ZM11.2686 15.2336H8.83986L8.43507 17.8517H11.6734L11.2686 15.2336ZM10.7289 11.6337H9.37959L9.04226 13.9245H11.0662L10.7289 11.6337ZM13.0902 8.20397C13.0632 8.68832 12.8338 9.46067 12.4155 9.86647L17.4754 11.8039V18.6764C17.4754 19.3309 18.8247 19.3309 18.8247 18.6764V12.2882C19.8367 12.6155 20.5114 10.9137 19.4994 10.5865L13.0902 8.20397ZM4.65701 0.833984C-0.0655696 0.833984 -1.41488 11.961 1.62107 11.961C2.63305 11.961 4.30619 6.85564 4.30619 6.85564L7.0183 7.83744C7.0183 7.30072 7.35563 6.56765 7.71994 6.18802L4.94036 5.16696C4.94036 5.16696 6.00632 1.94668 6.00632 1.48851C6.00632 1.16125 5.33166 0.833984 4.65701 0.833984ZM10.0542 9.99738C11.2416 9.99738 12.0782 9.18576 12.0782 8.03379C12.0782 6.89491 11.2416 6.07021 10.0542 6.07021C8.88034 6.07021 8.03028 6.90801 8.03028 8.05998C8.03028 9.19885 8.88034 9.99738 10.0542 9.99738Z" fill="#006FFD"/>
</svg>
