<svg width="20" height="20" viewBox="0 0 20 20" fill="none" xmlns="http://www.w3.org/2000/svg">
<path d="M10 8.33268C10.8841 8.33268 11.7319 7.98149 12.357 7.35637C12.9821 6.73125 13.3333 5.8834 13.3333 4.99935C13.3333 4.11529 12.9821 3.26745 12.357 2.64233C11.7319 2.01721 10.8841 1.66602 10 1.66602C9.11594 1.66602 8.2681 2.01721 7.64298 2.64233C7.01786 3.26745 6.66667 4.11529 6.66667 4.99935C6.66667 5.8834 7.01786 6.73125 7.64298 7.35637C8.2681 7.98149 9.11594 8.33268 10 8.33268ZM10 8.33268V13.3327M14.1667 9.99935H16.6667L17.5 17.4993H2.5L3.33333 9.99935H5.83333" stroke="#006FFD" stroke-width="2" stroke-linecap="square"/>
</svg>
