<svg width="20" height="26" viewBox="0 0 20 26" fill="none" xmlns="http://www.w3.org/2000/svg">
<path d="M5.45518 18.6335V19.5425C5.45518 19.6656 5.41021 19.7721 5.32026 19.862C5.23031 19.952 5.12379 19.997 5.00071 19.997H4.09175C3.96867 19.997 3.86215 19.952 3.7722 19.862C3.68225 19.7721 3.63728 19.6656 3.63728 19.5425V18.6335C3.63728 18.5105 3.68225 18.4039 3.7722 18.314C3.86215 18.224 3.96867 18.1791 4.09175 18.1791H5.00071C5.12379 18.1791 5.23031 18.224 5.32026 18.314C5.41021 18.4039 5.45518 18.5105 5.45518 18.6335ZM5.45518 14.9977V15.9067C5.45518 16.0298 5.41021 16.1363 5.32026 16.2262C5.23031 16.3162 5.12379 16.3612 5.00071 16.3612H4.09175C3.96867 16.3612 3.86215 16.3162 3.7722 16.2262C3.68225 16.1363 3.63728 16.0298 3.63728 15.9067V14.9977C3.63728 14.8746 3.68225 14.7681 3.7722 14.6782C3.86215 14.5882 3.96867 14.5433 4.09175 14.5433H5.00071C5.12379 14.5433 5.23031 14.5882 5.32026 14.6782C5.41021 14.7681 5.45518 14.8746 5.45518 14.9977ZM9.091 14.9977V15.9067C9.091 16.0298 9.04602 16.1363 8.95607 16.2262C8.86612 16.3162 8.75961 16.3612 8.63652 16.3612H7.72757C7.60448 16.3612 7.49796 16.3162 7.40801 16.2262C7.31806 16.1363 7.27309 16.0298 7.27309 15.9067V14.9977C7.27309 14.8746 7.31806 14.7681 7.40801 14.6782C7.49796 14.5882 7.60448 14.5433 7.72757 14.5433H8.63652C8.75961 14.5433 8.86612 14.5882 8.95607 14.6782C9.04602 14.7681 9.091 14.8746 9.091 14.9977ZM5.45518 11.3619V12.2709C5.45518 12.394 5.41021 12.5005 5.32026 12.5904C5.23031 12.6804 5.12379 12.7253 5.00071 12.7253H4.09175C3.96867 12.7253 3.86215 12.6804 3.7722 12.5904C3.68225 12.5005 3.63728 12.394 3.63728 12.2709V11.3619C3.63728 11.2388 3.68225 11.1323 3.7722 11.0424C3.86215 10.9524 3.96867 10.9074 4.09175 10.9074H5.00071C5.12379 10.9074 5.23031 10.9524 5.32026 11.0424C5.41021 11.1323 5.45518 11.2388 5.45518 11.3619ZM16.3626 18.6335V19.5425C16.3626 19.6656 16.3176 19.7721 16.2277 19.862C16.1377 19.952 16.0312 19.997 15.9081 19.997H14.9992C14.8761 19.997 14.7696 19.952 14.6796 19.862C14.5897 19.7721 14.5447 19.6656 14.5447 19.5425V18.6335C14.5447 18.5105 14.5897 18.4039 14.6796 18.314C14.7696 18.224 14.8761 18.1791 14.9992 18.1791H15.9081C16.0312 18.1791 16.1377 18.224 16.2277 18.314C16.3176 18.4039 16.3626 18.5105 16.3626 18.6335ZM12.7268 14.9977V15.9067C12.7268 16.0298 12.6818 16.1363 12.5919 16.2262C12.5019 16.3162 12.3954 16.3612 12.2723 16.3612H11.3634C11.2403 16.3612 11.1338 16.3162 11.0438 16.2262C10.9539 16.1363 10.9089 16.0298 10.9089 15.9067V14.9977C10.9089 14.8746 10.9539 14.7681 11.0438 14.6782C11.1338 14.5882 11.2403 14.5433 11.3634 14.5433H12.2723C12.3954 14.5433 12.5019 14.5882 12.5919 14.6782C12.6818 14.7681 12.7268 14.8746 12.7268 14.9977ZM9.091 11.3619V12.2709C9.091 12.394 9.04602 12.5005 8.95607 12.5904C8.86612 12.6804 8.75961 12.7253 8.63652 12.7253H7.72757C7.60448 12.7253 7.49796 12.6804 7.40801 12.5904C7.31806 12.5005 7.27309 12.394 7.27309 12.2709V11.3619C7.27309 11.2388 7.31806 11.1323 7.40801 11.0424C7.49796 10.9524 7.60448 10.9074 7.72757 10.9074H8.63652C8.75961 10.9074 8.86612 10.9524 8.95607 11.0424C9.04602 11.1323 9.091 11.2388 9.091 11.3619ZM16.3626 14.9977V15.9067C16.3626 16.0298 16.3176 16.1363 16.2277 16.2262C16.1377 16.3162 16.0312 16.3612 15.9081 16.3612H14.9992C14.8761 16.3612 14.7696 16.3162 14.6796 16.2262C14.5897 16.1363 14.5447 16.0298 14.5447 15.9067V14.9977C14.5447 14.8746 14.5897 14.7681 14.6796 14.6782C14.7696 14.5882 14.8761 14.5433 14.9992 14.5433H15.9081C16.0312 14.5433 16.1377 14.5882 16.2277 14.6782C16.3176 14.7681 16.3626 14.8746 16.3626 14.9977ZM12.7268 11.3619V12.2709C12.7268 12.394 12.6818 12.5005 12.5919 12.5904C12.5019 12.6804 12.3954 12.7253 12.2723 12.7253H11.3634C11.2403 12.7253 11.1338 12.6804 11.0438 12.5904C10.9539 12.5005 10.9089 12.394 10.9089 12.2709V11.3619C10.9089 11.2388 10.9539 11.1323 11.0438 11.0424C11.1338 10.9524 11.2403 10.9074 11.3634 10.9074H12.2723C12.3954 10.9074 12.5019 10.9524 12.5919 11.0424C12.6818 11.1323 12.7268 11.2388 12.7268 11.3619ZM16.3626 11.3619V12.2709C16.3626 12.394 16.3176 12.5005 16.2277 12.5904C16.1377 12.6804 16.0312 12.7253 15.9081 12.7253H14.9992C14.8761 12.7253 14.7696 12.6804 14.6796 12.5904C14.5897 12.5005 14.5447 12.394 14.5447 12.2709V11.3619C14.5447 11.2388 14.5897 11.1323 14.6796 11.0424C14.7696 10.9524 14.8761 10.9074 14.9992 10.9074H15.9081C16.0312 10.9074 16.1377 10.9524 16.2277 11.0424C16.3176 11.1323 16.3626 11.2388 16.3626 11.3619ZM12.7268 23.6328H18.1805V7.27163H14.5447V7.7261C14.5447 8.10483 14.4122 8.42675 14.147 8.69186C13.8819 8.95698 13.56 9.08953 13.1813 9.08953H6.81861C6.43988 9.08953 6.11796 8.95698 5.85285 8.69186C5.58774 8.42675 5.45518 8.10483 5.45518 7.7261V7.27163H1.81937V23.6328H7.27309V20.4514C7.27309 20.3284 7.31806 20.2218 7.40801 20.1319C7.49796 20.0419 7.60448 19.997 7.72757 19.997H12.2723C12.3954 19.997 12.5019 20.0419 12.5919 20.1319C12.6818 20.2218 12.7268 20.3284 12.7268 20.4514V23.6328ZM12.7268 6.81715V2.27238C12.7268 2.1493 12.6818 2.04278 12.5919 1.95283C12.5019 1.86288 12.3954 1.81791 12.2723 1.81791H11.3634C11.2403 1.81791 11.1338 1.86288 11.0438 1.95283C10.9539 2.04278 10.9089 2.1493 10.9089 2.27238V3.63581H9.091V2.27238C9.091 2.1493 9.04602 2.04278 8.95607 1.95283C8.86612 1.86288 8.75961 1.81791 8.63652 1.81791H7.72757C7.60448 1.81791 7.49796 1.86288 7.40801 1.95283C7.31806 2.04278 7.27309 2.1493 7.27309 2.27238V6.81715C7.27309 6.94024 7.31806 7.04675 7.40801 7.1367C7.49796 7.22665 7.60448 7.27163 7.72757 7.27163H8.63652C8.75961 7.27163 8.86612 7.22665 8.95607 7.1367C9.04602 7.04675 9.091 6.94024 9.091 6.81715V5.45372H10.9089V6.81715C10.9089 6.94024 10.9539 7.04675 11.0438 7.1367C11.1338 7.22665 11.2403 7.27163 11.3634 7.27163H12.2723C12.3954 7.27163 12.5019 7.22665 12.5919 7.1367C12.6818 7.04675 12.7268 6.94024 12.7268 6.81715ZM19.9984 6.36267V24.5417C19.9984 24.7879 19.9085 25.0009 19.7286 25.1808C19.5487 25.3607 19.3357 25.4507 19.0895 25.4507H0.910418C0.664243 25.4507 0.451207 25.3607 0.27131 25.1808C0.0914133 25.0009 0.00146484 24.7879 0.00146484 24.5417V6.36267C0.00146484 6.1165 0.0914133 5.90346 0.27131 5.72356C0.451207 5.54367 0.664243 5.45372 0.910418 5.45372H5.45518V1.36343C5.45518 0.984699 5.58774 0.662778 5.85285 0.397667C6.11796 0.132556 6.43988 0 6.81861 0H13.1813C13.56 0 13.8819 0.132556 14.147 0.397667C14.4122 0.662778 14.5447 0.984699 14.5447 1.36343V5.45372H19.0895C19.3357 5.45372 19.5487 5.54367 19.7286 5.72356C19.9085 5.90346 19.9984 6.1165 19.9984 6.36267Z" fill="#006FFD"/>
</svg>
