<svg width="20" height="20" viewBox="0 0 20 20" fill="none" xmlns="http://www.w3.org/2000/svg">
<path d="M3.46808 2.50005C3.43404 2.50005 3.39574 2.50409 3.3617 2.50894C2.04298 2.72351 0.72 5.50246 0.280851 6.50866H9.93191L10.4383 5.54287C9.91064 4.73469 8.93617 3.50786 7.95745 3.55958C7.31489 3.59191 6.08511 4.93269 6.08511 4.93269C6.08511 4.93269 4.57872 2.48752 3.46808 2.50005ZM11.7702 4.64983L10.4085 7.23602H7.01702L5.28511 11.0749C6.22128 11.2083 7.04681 11.6689 7.62553 12.3276H11.3532C11.5574 12.0932 11.7915 11.8871 12.0511 11.7093L13.2681 6.50866H15.3489L16.0426 4.64983H11.7702ZM0 7.23602V10.4688L0.577447 10.6102L2.10085 7.23602H0ZM2.93234 7.23602L1.32511 10.7961L2.41277 11.0668L4.14043 7.23602H2.93234ZM4.97447 7.23602L3.16085 11.2527L3.3183 11.2931C3.6766 11.1557 4.06383 11.0668 4.46808 11.0426L6.18298 7.23602H4.97447ZM13.8809 7.23602L12.9404 11.2568C13.3489 11.1153 13.7957 11.0345 14.2553 11.0345C15.9702 11.0345 17.4298 12.1296 17.8894 13.6207H20V10.3677L18.0213 9.7414L17.3617 7.23602H15.8851H13.8809ZM14.6383 7.80176H16.5957L17.1277 9.82222H14.1064L14.566 8.07654L14.6383 7.80176ZM4.7234 11.7619C3.05021 11.7619 1.70213 13.0428 1.70213 14.6309C1.70213 16.219 3.05021 17.5 4.7234 17.5C6.39574 17.5 7.74468 16.219 7.74468 14.6309C7.74468 13.0428 6.39574 11.7619 4.7234 11.7619ZM14.2553 11.7619C12.583 11.7619 11.234 13.0428 11.234 14.6309C11.234 16.219 12.583 17.5 14.2553 17.5C15.9277 17.5 17.2766 16.219 17.2766 14.6309C17.2766 13.0428 15.9277 11.7619 14.2553 11.7619ZM0.611915 13.055L0.0842553 15.5604H1.06511C0.981277 15.2654 0.93617 14.9502 0.93617 14.6309C0.93617 14.0652 1.07447 13.5318 1.32085 13.055H0.611915ZM8.12766 13.055C8.37021 13.5318 8.51064 14.0652 8.51064 14.6309C8.51064 14.9502 8.46383 15.2654 8.38298 15.5604H10.5957C10.5149 15.2654 10.4681 14.9502 10.4681 14.6309C10.4681 14.0652 10.6085 13.5318 10.8511 13.055H8.12766ZM4.7234 13.3378C5.08455 13.3378 5.4309 13.4741 5.68627 13.7166C5.94164 13.9591 6.08511 14.288 6.08511 14.6309C6.08511 14.9739 5.94164 15.3028 5.68627 15.5453C5.4309 15.7878 5.08455 15.924 4.7234 15.924C4.36226 15.924 4.0159 15.7878 3.76054 15.5453C3.50517 15.3028 3.3617 14.9739 3.3617 14.6309C3.3617 14.288 3.50517 13.9591 3.76054 13.7166C4.0159 13.4741 4.36226 13.3378 4.7234 13.3378ZM14.2553 13.3378C14.6165 13.3378 14.9628 13.4741 15.2182 13.7166C15.4736 13.9591 15.617 14.288 15.617 14.6309C15.617 14.9739 15.4736 15.3028 15.2182 15.5453C14.9628 15.7878 14.6165 15.924 14.2553 15.924C13.8942 15.924 13.5478 15.7878 13.2925 15.5453C13.0371 15.3028 12.8936 14.9739 12.8936 14.6309C12.8936 14.288 13.0371 13.9591 13.2925 13.7166C13.5478 13.4741 13.8942 13.3378 14.2553 13.3378ZM18.0298 14.3481C18.0383 14.441 18.0426 14.534 18.0426 14.6309C18.0426 15.0633 17.9617 15.4755 17.8128 15.8634L20 15.031V14.3481H18.0298Z" fill="#006FFD"/>
</svg>
