<svg width="20" height="20" viewBox="0 0 20 20" fill="none" xmlns="http://www.w3.org/2000/svg">
<path d="M10.0002 10.666C9.82335 10.666 9.65378 10.7363 9.52876 10.8613C9.40373 10.9863 9.3335 11.1559 9.3335 11.3327C9.3335 11.5095 9.40373 11.6791 9.52876 11.8041C9.65378 11.9291 9.82335 11.9993 10.0002 11.9993C10.177 11.9993 10.3465 11.9291 10.4716 11.8041C10.5966 11.6791 10.6668 11.5095 10.6668 11.3327C10.6668 11.1559 10.5966 10.9863 10.4716 10.8613C10.3465 10.7363 10.177 10.666 10.0002 10.666Z" fill="#006FFD"/>
<path fill-rule="evenodd" clip-rule="evenodd" d="M16 8.25467L10.6667 5.588V4H14.6667V0H9.33333V5.588L4 8.25467V10.6667H1.33333V18.6667H0V20H8V14.6667H12V20H20V18.6667H18.6667V10.6667H16V8.25467ZM17.3333 18.6667V12H16V18.6667H17.3333ZM4 18.6667H2.66667V12H4V18.6667ZM8 11.3333C8 10.8029 8.21071 10.2942 8.58579 9.91912C8.96086 9.54405 9.46957 9.33333 10 9.33333C10.5304 9.33333 11.0391 9.54405 11.4142 9.91912C11.7893 10.2942 12 10.8029 12 11.3333C12 11.8638 11.7893 12.3725 11.4142 12.7475C11.0391 13.1226 10.5304 13.3333 10 13.3333C9.46957 13.3333 8.96086 13.1226 8.58579 12.7475C8.21071 12.3725 8 11.8638 8 11.3333Z" fill="#006FFD"/>
<path d="M10.6668 20V16H9.3335V20H10.6668Z" fill="#006FFD"/>
</svg>
