<svg width="20" height="20" viewBox="0 0 20 20" fill="none" xmlns="http://www.w3.org/2000/svg">
<path d="M0.833496 10.0208C0.833496 9.74306 0.895996 9.48611 1.021 9.25C1.146 9.01389 1.31961 8.81944 1.54183 8.66667L5.7085 5.6875C5.86127 5.57639 6.01766 5.49639 6.17766 5.4475C6.33766 5.39861 6.50072 5.37444 6.66683 5.375C6.83294 5.37556 6.99627 5.4 7.15683 5.44833C7.31739 5.49667 7.4735 5.57639 7.62516 5.6875L11.7918 8.66667C12.0141 8.81944 12.1877 9.01389 12.3127 9.25C12.4377 9.48611 12.5002 9.74306 12.5002 10.0208V15.8333C12.5002 16.2917 12.3371 16.6842 12.011 17.0108C11.6849 17.3375 11.2924 17.5006 10.8335 17.5H10.0002C9.54183 17.5 9.14961 17.3369 8.8235 17.0108C8.49739 16.6847 8.33405 16.2922 8.3335 15.8333V13.75C8.3335 13.4028 8.21211 13.1078 7.96933 12.865C7.72655 12.6222 7.43127 12.5006 7.0835 12.5H6.25016C5.90294 12.5 5.60794 12.6217 5.36516 12.865C5.12239 13.1083 5.00072 13.4033 5.00016 13.75V15.8333C5.00016 16.2917 4.83711 16.6842 4.511 17.0108C4.18489 17.3375 3.79239 17.5006 3.3335 17.5H2.50016C2.04183 17.5 1.64961 17.3369 1.3235 17.0108C0.997385 16.6847 0.834052 16.2922 0.833496 15.8333V10.0208ZM19.1668 4.16667V15.8333C19.1668 16.2917 19.0038 16.6842 18.6777 17.0108C18.3516 17.3375 17.9591 17.5006 17.5002 17.5H15.0002C14.7641 17.5 14.5663 17.42 14.4068 17.26C14.2474 17.1 14.1674 16.9022 14.1668 16.6667V9.1875C14.1668 8.90972 14.1077 8.65278 13.9893 8.41667C13.871 8.18056 13.701 7.98611 13.4793 7.83333L9.12516 4.70833C8.94461 4.56944 8.79877 4.40278 8.68766 4.20833C8.57655 4.01389 8.521 3.81944 8.521 3.625C8.521 3.27778 8.63211 3.00361 8.85433 2.8025C9.07655 2.60139 9.37516 2.50056 9.75016 2.5H17.5002C17.9585 2.5 18.351 2.66333 18.6777 2.99C19.0043 3.31667 19.1674 3.70889 19.1668 4.16667ZM14.5835 7.5H15.4168C15.5279 7.5 15.6252 7.45833 15.7085 7.375C15.7918 7.29167 15.8335 7.19444 15.8335 7.08333V6.25C15.8335 6.13889 15.7918 6.04167 15.7085 5.95833C15.6252 5.875 15.5279 5.83333 15.4168 5.83333H14.5835C14.4724 5.83333 14.3752 5.875 14.2918 5.95833C14.2085 6.04167 14.1668 6.13889 14.1668 6.25V7.08333C14.1668 7.19444 14.2085 7.29167 14.2918 7.375C14.3752 7.45833 14.4724 7.5 14.5835 7.5ZM14.5835 10.8333H15.4168C15.5279 10.8333 15.6252 10.7917 15.7085 10.7083C15.7918 10.625 15.8335 10.5278 15.8335 10.4167V9.58333C15.8335 9.47222 15.7918 9.375 15.7085 9.29167C15.6252 9.20833 15.5279 9.16667 15.4168 9.16667H14.5835C14.4724 9.16667 14.3752 9.20833 14.2918 9.29167C14.2085 9.375 14.1668 9.47222 14.1668 9.58333V10.4167C14.1668 10.5278 14.2085 10.625 14.2918 10.7083C14.3752 10.7917 14.4724 10.8333 14.5835 10.8333ZM14.5835 14.1667H15.4168C15.5279 14.1667 15.6252 14.125 15.7085 14.0417C15.7918 13.9583 15.8335 13.8611 15.8335 13.75V12.9167C15.8335 12.8056 15.7918 12.7083 15.7085 12.625C15.6252 12.5417 15.5279 12.5 15.4168 12.5H14.5835C14.4724 12.5 14.3752 12.5417 14.2918 12.625C14.2085 12.7083 14.1668 12.8056 14.1668 12.9167V13.75C14.1668 13.8611 14.2085 13.9583 14.2918 14.0417C14.3752 14.125 14.4724 14.1667 14.5835 14.1667Z" fill="#006FFD"/>
</svg>
