<svg width="20" height="20" viewBox="0 0 20 20" fill="none" xmlns="http://www.w3.org/2000/svg">
    <path
        d="M2.37372 3.46409H17.6263C18.2255 3.46409 18.7158 2.97383 18.7158 2.37463C18.7158 1.77542 18.2255 1.28516 17.6263 1.28516H2.37372C1.77451 1.28516 1.28425 1.77542 1.28425 2.37463C1.28425 2.97383 1.77451 3.46409 2.37372 3.46409ZM18.8901 5.42514C18.792 4.92398 18.3453 4.55356 17.8224 4.55356H2.17761C1.65467 4.55356 1.20799 4.92398 1.10993 5.42514L0.0204651 10.8725C-0.110271 11.548 0.401779 12.1798 1.08814 12.1798H1.28425V17.6272C1.28425 18.2264 1.77451 18.7167 2.37372 18.7167H11.0895C11.6887 18.7167 12.1789 18.2264 12.1789 17.6272V12.1798H16.5368V17.6272C16.5368 18.2264 17.0271 18.7167 17.6263 18.7167C18.2255 18.7167 18.7158 18.2264 18.7158 17.6272V12.1798H18.9119C19.5982 12.1798 20.1103 11.548 19.9795 10.8725L18.8901 5.42514ZM10 16.5377H3.46319V12.1798H10V16.5377Z"
        fill="#006FFD" />
</svg>