<svg width="20" height="20" viewBox="0 0 20 20" fill="none" xmlns="http://www.w3.org/2000/svg">
<path d="M13.8414 16.1805C13.9326 16.2634 14.0065 16.3635 14.059 16.475C14.1114 16.5865 14.1414 16.7073 14.1472 16.8304C14.153 16.9535 14.1345 17.0766 14.0928 17.1925C14.051 17.3085 13.9869 17.4151 13.9039 17.5063C13.821 17.5974 13.7209 17.6713 13.6093 17.7238C13.4978 17.7763 13.3771 17.8063 13.254 17.8121C13.1308 17.8179 13.0078 17.7994 12.8918 17.7576C12.7759 17.7159 12.6693 17.6517 12.5781 17.5688C9.64884 14.9077 5.8325 13.4347 1.875 13.4375C1.62636 13.4375 1.3879 13.3387 1.21209 13.1629C1.03627 12.9871 0.9375 12.7486 0.9375 12.5C0.9375 12.2514 1.03627 12.0129 1.21209 11.8371C1.3879 11.6613 1.62636 11.5625 1.875 11.5625C6.29963 11.5583 10.5667 13.205 13.8414 16.1805ZM8.00234 16.0242C6.08114 15.1392 3.99026 14.683 1.875 14.6875C1.62636 14.6875 1.3879 14.7863 1.21209 14.9621C1.03627 15.1379 0.9375 15.3764 0.9375 15.625C0.9375 15.8736 1.03627 16.1121 1.21209 16.2879C1.3879 16.4637 1.62636 16.5625 1.875 16.5625C3.7199 16.5578 5.54369 16.955 7.21953 17.7266C7.33188 17.7813 7.45404 17.8131 7.57884 17.82C7.70363 17.8268 7.82854 17.8087 7.94622 17.7666C8.0639 17.7245 8.17197 17.6592 8.26408 17.5748C8.35618 17.4903 8.43047 17.3882 8.48256 17.2746C8.53465 17.161 8.5635 17.0381 8.56741 16.9132C8.57131 16.7883 8.5502 16.6638 8.50532 16.5472C8.46043 16.4305 8.39267 16.324 8.30602 16.234C8.21938 16.1439 8.1156 16.072 8.00078 16.0227L8.00234 16.0242ZM19.0625 12.5C19.0625 12.7486 18.9637 12.9871 18.7879 13.1629C18.6121 13.3387 18.3736 13.4375 18.125 13.4375C17.3042 13.4371 16.4846 13.4998 15.6734 13.625C16.5982 14.4368 17.4501 15.328 18.2195 16.2883C18.3011 16.3838 18.3626 16.4947 18.4005 16.6144C18.4383 16.7342 18.4517 16.8603 18.4399 16.9853C18.4281 17.1103 18.3913 17.2317 18.3317 17.3422C18.272 17.4527 18.1908 17.5501 18.0928 17.6287C17.9948 17.7072 17.882 17.7652 17.7612 17.7993C17.6403 17.8334 17.5138 17.8429 17.3892 17.8272C17.2647 17.8115 17.1445 17.7709 17.0359 17.7078C16.9273 17.6448 16.8325 17.5606 16.757 17.4602C14.9747 15.2252 12.7105 13.4215 10.1337 12.1839C7.55679 10.9463 4.73368 10.3065 1.875 10.3125C1.62636 10.3125 1.3879 10.2137 1.21209 10.0379C1.03627 9.8621 0.9375 9.62364 0.9375 9.375C0.9375 9.12636 1.03627 8.8879 1.21209 8.71209C1.3879 8.53627 1.62636 8.4375 1.875 8.4375C3.02658 8.43761 4.17622 8.53167 5.3125 8.71875V6.25C5.3125 6.10446 5.34639 5.96091 5.41147 5.83074C5.47656 5.70056 5.57107 5.58733 5.6875 5.5L10.6875 1.75C10.8498 1.62829 11.0472 1.5625 11.25 1.5625C11.4528 1.5625 11.6502 1.62829 11.8125 1.75L16.8125 5.5C16.9289 5.58733 17.0234 5.70056 17.0885 5.83074C17.1536 5.96091 17.1875 6.10446 17.1875 6.25V8.45938C17.5 8.44609 17.8125 8.4375 18.125 8.4375C18.3736 8.4375 18.6121 8.53627 18.7879 8.71209C18.9637 8.8879 19.0625 9.12636 19.0625 9.375C19.0625 9.62364 18.9637 9.8621 18.7879 10.0379C18.6121 10.2137 18.3736 10.3125 18.125 10.3125C16.1519 10.3092 14.1903 10.6136 12.3109 11.2148C12.7943 11.4935 13.2669 11.7919 13.7289 12.1102C15.1659 11.7459 16.6426 11.5619 18.125 11.5625C18.3736 11.5625 18.6121 11.6613 18.7879 11.8371C18.9637 12.0129 19.0625 12.2514 19.0625 12.5ZM12.1875 8.4375H10.3125V9.94531C10.9286 9.69688 11.5536 9.47839 12.1875 9.28984V8.4375ZM7.1875 9.11641C7.60859 9.22578 8.025 9.35078 8.4375 9.48516V7.5C8.4375 7.25136 8.53627 7.0129 8.71209 6.83709C8.8879 6.66127 9.12636 6.5625 9.375 6.5625H13.125C13.3736 6.5625 13.6121 6.66127 13.7879 6.83709C13.9637 7.0129 14.0625 7.25136 14.0625 7.5V8.82813C14.4792 8.74688 14.8958 8.67787 15.3125 8.62109V6.71875L11.25 3.67188L7.1875 6.71875V9.11641Z" fill="#006FFD"/>
</svg>
