<svg width="20" height="20" viewBox="0 0 20 20" fill="none" xmlns="http://www.w3.org/2000/svg">
<path d="M6.08317 12.2493L7.08317 11.2493C6.24984 10.416 5.83317 9.33268 5.83317 8.33268C5.83317 7.24935 6.24984 6.16602 7.08317 5.41602L6.08317 4.41602C4.99984 5.49935 4.4165 6.91602 4.4165 8.33268C4.4165 9.74935 4.99984 11.166 6.08317 12.2493ZM15.9165 2.41602L14.9165 3.41602C16.2498 4.74935 16.9165 6.58268 16.9165 8.33268C16.9165 10.0827 16.2498 11.916 14.9165 13.2493L15.9165 14.2493C17.5832 12.5827 18.3332 10.4993 18.3332 8.33268C18.3332 6.16602 17.4998 4.08268 15.9165 2.41602Z" fill="#006FFD"/>
<path d="M5.08317 3.41602L4.08317 2.41602C2.49984 4.08268 1.6665 6.16602 1.6665 8.33268C1.6665 10.4993 2.49984 12.5827 4.08317 14.2493L5.08317 13.2493C3.74984 11.916 3.08317 10.0827 3.08317 8.33268C3.08317 6.58268 3.74984 4.74935 5.08317 3.41602ZM13.9165 12.2493C14.9998 11.166 15.5832 9.74935 15.5832 8.33268C15.4998 6.91602 14.9998 5.49935 13.9165 4.41602L12.9165 5.41602C13.7498 6.24935 14.1665 7.33268 14.1665 8.33268C14.1665 9.41602 13.7498 10.4993 12.9165 11.2493L13.9165 12.2493ZM12.0832 8.33268C12.0832 7.78015 11.8637 7.25024 11.473 6.85954C11.0823 6.46884 10.5524 6.24935 9.99984 6.24935C9.4473 6.24935 8.9174 6.46884 8.5267 6.85954C8.136 7.25024 7.9165 7.78015 7.9165 8.33268C7.9165 8.96602 8.19984 9.51602 8.6415 9.89935L5.83317 18.3327H7.49984L8.05817 16.666H11.9498L12.4998 18.3327H14.1665L11.3582 9.89935C11.7998 9.51602 12.0832 8.96602 12.0832 8.33268ZM8.60817 14.9993L9.99984 10.8327L11.3915 14.9993H8.60817Z" fill="#006FFD"/>
</svg>
