<svg width="24" height="24" viewBox="0 0 24 24" fill="none" xmlns="http://www.w3.org/2000/svg">
<mask id="mask0_5670_29812" style="mask-type:alpha" maskUnits="userSpaceOnUse" x="1" y="1" width="22" height="22">
<ellipse cx="12.0002" cy="12" rx="11.0002" ry="11" fill="#D9D9D9"/>
</mask>
<g mask="url(#mask0_5670_29812)">
<rect width="24.0004" height="24" fill="#FFB37C"/>
</g>
<path d="M11.4465 6.05951C11.6208 5.98276 11.8091 5.9432 11.9996 5.94336C12.1899 5.94341 12.3781 5.98312 12.5522 6.05996C12.7263 6.13681 12.8825 6.24909 13.0108 6.38966C13.1391 6.53024 13.2367 6.696 13.2973 6.87639C13.358 7.05678 13.3804 7.24783 13.3631 7.43736L12.8171 13.4464C12.7959 13.6484 12.7006 13.8354 12.5496 13.9713C12.3987 14.1073 12.2027 14.1825 11.9996 14.1825C11.7964 14.1825 11.6005 14.1073 11.4495 13.9713C11.2986 13.8354 11.2033 13.6484 11.1821 13.4464L10.6346 7.43736C10.6173 7.24771 10.6397 7.05653 10.7004 6.87604C10.7612 6.69555 10.8589 6.52971 10.9874 6.38911C11.1158 6.24852 11.2722 6.13626 11.4465 6.05951Z" fill="white"/>
<path d="M13.3081 16.7471C13.3081 17.4698 12.7223 18.0556 11.9996 18.0556C11.277 18.0556 10.6911 17.4698 10.6911 16.7471C10.6911 16.0245 11.277 15.4386 11.9996 15.4386C12.7223 15.4386 13.3081 16.0245 13.3081 16.7471Z" fill="white"/>
</svg>
