<svg width="24" height="24" viewBox="0 0 24 24" fill="none" xmlns="http://www.w3.org/2000/svg">
<mask id="mask0_2704_17396" style="mask-type:alpha" maskUnits="userSpaceOnUse" x="1" y="1" width="22" height="22">
<ellipse cx="12.0002" cy="12" rx="11.0002" ry="11" fill="#D9D9D9"/>
</mask>
<g mask="url(#mask0_2704_17396)">
<rect width="24.0004" height="24" fill="#006FFD"/>
</g>
<path fill-rule="evenodd" clip-rule="evenodd" d="M9.63303 10.8125C9.63303 10.2603 10.0807 9.81254 10.633 9.81254H11.9998C12.5521 9.81254 12.9998 10.2603 12.9998 10.8125V15.4693H14.2057C14.758 15.4693 15.2057 15.917 15.2057 16.4693C15.2057 17.0216 14.758 17.4693 14.2057 17.4693H9.79395C9.24166 17.4693 8.79395 17.0216 8.79395 16.4693C8.79395 15.917 9.24166 15.4693 9.79395 15.4693H10.9998V11.8125H10.633C10.0807 11.8125 9.63303 11.3648 9.63303 10.8125Z" fill="white"/>
<path d="M13.2324 7.83778C13.2324 8.56044 12.6466 9.14627 11.924 9.14627C11.2013 9.14627 10.6155 8.56044 10.6155 7.83778C10.6155 7.11513 11.2013 6.5293 11.924 6.5293C12.6466 6.5293 13.2324 7.11513 13.2324 7.83778Z" fill="white"/>
</svg>
