<svg width="24" height="18" viewBox="0 0 24 18" fill="none" xmlns="http://www.w3.org/2000/svg">
<path d="M14.1818 10.5615C13.2727 10.5615 12.5 10.2516 11.8636 9.63184C11.2273 9.01204 10.9091 8.25944 10.9091 7.37402C10.9091 6.48861 11.2273 5.736 11.8636 5.11621C12.5 4.49642 13.2727 4.18652 14.1818 4.18652C15.0909 4.18652 15.8636 4.49642 16.5 5.11621C17.1364 5.736 17.4545 6.48861 17.4545 7.37402C17.4545 8.25944 17.1364 9.01204 16.5 9.63184C15.8636 10.2516 15.0909 10.5615 14.1818 10.5615ZM6.54545 13.749C5.94545 13.749 5.432 13.5411 5.00509 13.1253C4.57818 12.7095 4.36436 12.2091 4.36364 11.624V3.12402C4.36364 2.53965 4.57745 2.03956 5.00509 1.62377C5.43273 1.20798 5.94618 0.999732 6.54545 0.999023H21.8182C22.4182 0.999023 22.932 1.20727 23.3596 1.62377C23.7873 2.04027 24.0007 2.54036 24 3.12402V11.624C24 12.2084 23.7865 12.7088 23.3596 13.1253C22.9327 13.5418 22.4189 13.7497 21.8182 13.749H6.54545ZM8.72727 11.624H19.6364C19.6364 11.0396 19.8502 10.5396 20.2778 10.1238C20.7055 9.70798 21.2189 9.49973 21.8182 9.49902V5.24902C21.2182 5.24902 20.7047 5.04113 20.2778 4.62534C19.8509 4.20954 19.6371 3.70911 19.6364 3.12402H8.72727C8.72727 3.7084 8.51382 4.20884 8.08691 4.62534C7.66 5.04184 7.14618 5.24973 6.54545 5.24902V9.49902C7.14545 9.49902 7.65927 9.70727 8.08691 10.1238C8.51454 10.5403 8.728 11.0404 8.72727 11.624ZM20.7273 17.999H2.18182C1.58182 17.999 1.06836 17.7911 0.641455 17.3753C0.214545 16.9595 0.000727273 16.4591 0 15.874V4.18652H2.18182V15.874H20.7273V17.999Z" fill="#006FFD"/>
</svg>
