<svg width="18" height="18" viewBox="0 0 18 18" fill="none" xmlns="http://www.w3.org/2000/svg">
<path d="M2.25 2.4C2.25 1.96239 2.42779 1.54271 2.74426 1.23327C3.06072 0.923839 3.48995 0.75 3.9375 0.75H10.6875C10.9113 0.750047 11.1258 0.836997 11.284 0.991725L15.5028 5.11673C15.661 5.27141 15.75 5.48121 15.75 5.7V15.6C15.75 16.0376 15.5722 16.4573 15.2557 16.7667C14.9393 17.0762 14.5101 17.25 14.0625 17.25H3.9375C3.48995 17.25 3.06072 17.0762 2.74426 16.7667C2.42779 16.4573 2.25 16.0376 2.25 15.6V2.4ZM13.7132 5.7L10.6875 2.74155V5.7H13.7132ZM9 2.4H3.9375V15.6H14.0625V7.35H9.84375C9.61997 7.35 9.40536 7.26308 9.24713 7.10836C9.08889 6.95365 9 6.7438 9 6.525V2.4ZM5.625 9.825C5.625 9.6062 5.71389 9.39635 5.87213 9.24164C6.03036 9.08692 6.24497 9 6.46875 9H11.5312C11.755 9 11.9696 9.08692 12.1279 9.24164C12.2861 9.39635 12.375 9.6062 12.375 9.825C12.375 10.0438 12.2861 10.2536 12.1279 10.4084C11.9696 10.5631 11.755 10.65 11.5312 10.65H6.46875C6.24497 10.65 6.03036 10.5631 5.87213 10.4084C5.71389 10.2536 5.625 10.0438 5.625 9.825ZM5.625 13.125C5.625 12.9062 5.71389 12.6964 5.87213 12.5416C6.03036 12.3869 6.24497 12.3 6.46875 12.3H11.5312C11.755 12.3 11.9696 12.3869 12.1279 12.5416C12.2861 12.6964 12.375 12.9062 12.375 13.125C12.375 13.3438 12.2861 13.5536 12.1279 13.7084C11.9696 13.8631 11.755 13.95 11.5312 13.95H6.46875C6.24497 13.95 6.03036 13.8631 5.87213 13.7084C5.71389 13.5536 5.625 13.3438 5.625 13.125Z" fill="#006FFD"/>
</svg>
