<svg width="80" height="80" viewBox="0 0 80 80" fill="none" xmlns="http://www.w3.org/2000/svg">
<circle cx="40" cy="40" r="40" fill="#E7F4E8"/>
<path d="M40.5 63C34.5326 63 28.8097 60.6295 24.5901 56.4099C20.3705 52.1903 18 46.4674 18 40.5C18 34.5326 20.3705 28.8097 24.5901 24.5901C28.8097 20.3705 34.5326 18 40.5 18C46.4674 18 52.1903 20.3705 56.4099 24.5901C60.6295 28.8097 63 34.5326 63 40.5C63 46.4674 60.6295 52.1903 56.4099 56.4099C52.1903 60.6295 46.4674 63 40.5 63ZM36 51.75L56.25 32.625L52.875 29.25L36 45L28.125 37.125L24.75 40.5L36 51.75Z" fill="#3AC0A0"/>
</svg>
