<svg width="44" height="44" viewBox="0 0 44 44" fill="none" xmlns="http://www.w3.org/2000/svg">
<path d="M22 0.25C34.0122 0.25 43.75 9.98781 43.75 22C43.75 34.0122 34.0122 43.75 22 43.75C9.98781 43.75 0.25 34.0122 0.25 22C0.25 9.98781 9.98781 0.25 22 0.25Z" fill="#D4D6DD"/>
<path d="M22 0.25C34.0122 0.25 43.75 9.98781 43.75 22C43.75 34.0122 34.0122 43.75 22 43.75C9.98781 43.75 0.25 34.0122 0.25 22C0.25 9.98781 9.98781 0.25 22 0.25Z" stroke="#C5C6CC" stroke-width="0.5"/>
<mask id="mask0_4604_23541" style="mask-type:alpha" maskUnits="userSpaceOnUse" x="11" y="14" width="22" height="16">
<path d="M22 19C21.2044 19 20.4413 19.3161 19.8787 19.8787C19.3161 20.4413 19 21.2043 19 22C19 22.7956 19.3161 23.5587 19.8787 24.1213C20.4413 24.6839 21.2044 25 22 25C22.7956 25 23.5587 24.6839 24.1213 24.1213C24.6839 23.5587 25 22.7956 25 22C25 21.2043 24.6839 20.4413 24.1213 19.8787C23.5587 19.3161 22.7956 19 22 19ZM22 27C20.6739 27 19.4021 26.4732 18.4645 25.5355C17.5268 24.5979 17 23.3261 17 22C17 20.6739 17.5268 19.4021 18.4645 18.4645C19.4021 17.5268 20.6739 17 22 17C23.3261 17 24.5979 17.5268 25.5355 18.4645C26.4732 19.4021 27 20.6739 27 22C27 23.3261 26.4732 24.5979 25.5355 25.5355C24.5979 26.4732 23.3261 27 22 27ZM22 14.5C17.14 14.5 12.78 17.5 11 22C13.39 28.08 20.25 31.06 26.33 28.67C29.38 27.47 31.8 25.06 33 22C31.22 17.5 26.86 14.5 22 14.5Z" fill="#006FFD"/>
</mask>
<g mask="url(#mask0_4604_23541)">
<rect x="11" y="11" width="22" height="22" fill="#494A50"/>
</g>
</svg>
