<svg width="44" height="44" viewBox="0 0 44 44" fill="none" xmlns="http://www.w3.org/2000/svg">
<path d="M22 0.25C34.0122 0.25 43.75 9.98781 43.75 22C43.75 34.0122 34.0122 43.75 22 43.75C9.98781 43.75 0.25 34.0122 0.25 22C0.25 9.98781 9.98781 0.25 22 0.25Z" fill="#D4D6DD"/>
<path d="M22 0.25C34.0122 0.25 43.75 9.98781 43.75 22C43.75 34.0122 34.0122 43.75 22 43.75C9.98781 43.75 0.25 34.0122 0.25 22C0.25 9.98781 9.98781 0.25 22 0.25Z" stroke="#C5C6CC" stroke-width="0.5"/>
<path d="M26.4917 13.75C26.7402 13.7499 26.9799 13.8415 27.165 14.0073C27.3501 14.1731 27.4674 14.4013 27.4945 14.6483L27.5 14.7583V17.4167H28.4167C29.1182 17.4166 29.7931 17.6846 30.3034 18.1658C30.8138 18.6471 31.121 19.3051 31.1621 20.0053L31.1667 20.1667V26.5833C31.1669 27.0459 30.9922 27.4914 30.6777 27.8305C30.3632 28.1697 29.9321 28.3774 29.4709 28.4121L29.3334 28.4167H27.5V30.1583C27.5002 30.4068 27.4086 30.6466 27.2428 30.8316C27.077 31.0167 26.8487 31.1341 26.6017 31.1612L26.4917 31.1667H17.5084C17.2599 31.1668 17.0201 31.0752 16.8351 30.9094C16.65 30.7436 16.5326 30.5153 16.5055 30.2683L16.5 30.1583V28.4167H14.6667C14.2042 28.4168 13.7587 28.2421 13.4195 27.9276C13.0804 27.6131 12.8726 27.1821 12.838 26.7208L12.8334 26.5833V20.1667C12.8333 19.4652 13.1013 18.7903 13.5826 18.2799C14.0638 17.7696 14.7218 17.4624 15.422 17.4212L15.5834 17.4167H16.5V14.7583C16.4999 14.5099 16.5915 14.2701 16.7573 14.085C16.9231 13.9 17.1514 13.7826 17.3984 13.7555L17.5084 13.75H26.4917ZM25.6667 25.6667H18.3334V29.3333H25.6667V25.6667ZM28.4167 19.25H15.5834C15.3589 19.25 15.1421 19.3325 14.9744 19.4817C14.8066 19.6309 14.6994 19.8364 14.6731 20.0594L14.6667 20.1667V26.5833H16.5V24.8417C16.4999 24.5932 16.5915 24.3534 16.7573 24.1684C16.9231 23.9833 17.1514 23.8659 17.3984 23.8388L17.5084 23.8333H26.4917C26.7402 23.8332 26.9799 23.9248 27.165 24.0906C27.3501 24.2564 27.4674 24.4847 27.4945 24.7317L27.5 24.8417V26.5833H29.3334V20.1667C29.3334 19.9236 29.2368 19.6904 29.0649 19.5185C28.893 19.3466 28.6598 19.25 28.4167 19.25ZM26.5834 20.1667C26.817 20.1669 27.0417 20.2564 27.2116 20.4168C27.3815 20.5772 27.4838 20.7964 27.4974 21.0296C27.5111 21.2628 27.4353 21.4925 27.2853 21.6717C27.1353 21.8508 26.9226 21.966 26.6906 21.9936L26.5834 22H24.75C24.5164 21.9997 24.2917 21.9103 24.1218 21.7499C23.9519 21.5895 23.8497 21.3703 23.836 21.1371C23.8223 20.9038 23.8982 20.6742 24.0481 20.495C24.1981 20.3158 24.4108 20.2007 24.6428 20.1731L24.75 20.1667H26.5834ZM25.6667 15.5833H18.3334V17.4167H25.6667V15.5833Z" fill="#494A50"/>
</svg>
