<svg width="24" height="24" viewBox="0 0 24 24" fill="none" xmlns="http://www.w3.org/2000/svg">
<path d="M0.996094 21.2571V8.91428C0.996094 8.48 1.09372 8.06857 1.28897 7.68C1.48422 7.29143 1.75326 6.97143 2.09609 6.72L10.3461 0.548571C10.8273 0.182857 11.3773 0 11.9961 0C12.6148 0 13.1648 0.182857 13.6461 0.548571L21.8961 6.72C22.2398 6.97143 22.5093 7.29143 22.7046 7.68C22.8998 8.06857 22.997 8.48 22.9961 8.91428V21.2571C22.9961 22.0114 22.7266 22.6574 22.1876 23.195C21.6486 23.7326 21.0014 24.0009 20.2461 24H16.1211C15.7315 24 15.4052 23.8683 15.1421 23.605C14.879 23.3417 14.747 23.0162 14.7461 22.6286V15.7714C14.7461 15.3829 14.6141 15.0574 14.3501 14.795C14.0861 14.5326 13.7598 14.4009 13.3711 14.4H10.6211C10.2315 14.4 9.90518 14.5317 9.64209 14.795C9.37901 15.0583 9.24701 15.3838 9.24609 15.7714V22.6286C9.24609 23.0171 9.11409 23.3431 8.85009 23.6064C8.58609 23.8697 8.25976 24.0009 7.87109 24H3.74609C2.98984 24 2.34268 23.7317 1.80459 23.195C1.26651 22.6583 0.99701 22.0123 0.996094 21.2571Z" fill="#035DAD"/>
</svg>
