<svg width="24" height="20" viewBox="0 0 24 20" fill="none" xmlns="http://www.w3.org/2000/svg">
<path fill-rule="evenodd" clip-rule="evenodd" d="M3.6 0C2.64522 0 1.72955 0.379285 1.05442 1.05442C0.379285 1.72955 0 2.64522 0 3.6V4.8H24V3.6C24 2.64522 23.6207 1.72955 22.9456 1.05442C22.2705 0.379285 21.3548 0 20.4 0H3.6ZM24 7.2H0V15.6C0 16.5548 0.379285 17.4705 1.05442 18.1456C1.72955 18.8207 2.64522 19.2 3.6 19.2H20.4C21.3548 19.2 22.2705 18.8207 22.9456 18.1456C23.6207 17.4705 24 16.5548 24 15.6V7.2ZM7.2 13.2C7.2 12.8817 7.32643 12.5765 7.55147 12.3515C7.77652 12.1264 8.08174 12 8.4 12H13.6968L13.5516 11.8548C13.3264 11.6298 13.1999 11.3245 13.1998 11.0062C13.1996 10.6879 13.326 10.3826 13.551 10.1574C13.776 9.93223 14.0813 9.80567 14.3996 9.80556C14.7179 9.80544 15.0232 9.93179 15.2484 10.1568L17.442 12.3516C17.667 12.5766 17.7933 12.8818 17.7933 13.2C17.7933 13.5182 17.667 13.8234 17.442 14.0484L15.2484 16.242C15.1377 16.3566 15.0053 16.448 14.8589 16.5109C14.7125 16.5738 14.555 16.6069 14.3957 16.6083C14.2363 16.6097 14.0783 16.5793 13.9309 16.519C13.7834 16.4586 13.6494 16.3695 13.5367 16.2569C13.4241 16.1442 13.335 16.0102 13.2746 15.8627C13.2143 15.7153 13.1839 15.5573 13.1853 15.3979C13.1867 15.2386 13.2198 15.0811 13.2827 14.9347C13.3456 14.7883 13.437 14.6559 13.5516 14.5452L13.6968 14.4H8.4C8.08174 14.4 7.77652 14.2736 7.55147 14.0485C7.32643 13.8235 7.2 13.5183 7.2 13.2Z" fill="#035DAD"/>
</svg>
