<svg width="24" height="24" viewBox="0 0 24 24" fill="none" xmlns="http://www.w3.org/2000/svg">
<path d="M4.23529 3.93333C4.23529 3.15536 4.53277 2.40926 5.06229 1.85915C5.5918 1.30905 6.30998 1 7.05882 1H16.9412C17.69 1 18.4082 1.30905 18.9377 1.85915C19.4672 2.40926 19.7647 3.15536 19.7647 3.93333V14.2H24V17.1333C24 18.3003 23.5538 19.4194 22.7595 20.2446C21.9652 21.0698 20.888 21.5333 19.7647 21.5333H14.0471C14.0941 21.2957 14.1176 21.0513 14.1176 20.8V16.4C14.1176 15.4275 13.7458 14.4949 13.0839 13.8073C12.422 13.1196 11.5243 12.7333 10.5882 12.7333H4.23529V3.93333ZM19.7647 20.0667C20.5136 20.0667 21.2317 19.7576 21.7612 19.2075C22.2908 18.6574 22.5882 17.9113 22.5882 17.1333V15.6667H19.7647V20.0667ZM9.17647 5.4C8.98926 5.4 8.80972 5.47726 8.67734 5.61479C8.54496 5.75232 8.47059 5.93884 8.47059 6.13333C8.47059 6.32783 8.54496 6.51435 8.67734 6.65188C8.80972 6.7894 8.98926 6.86667 9.17647 6.86667H14.8235C15.0107 6.86667 15.1903 6.7894 15.3227 6.65188C15.455 6.51435 15.5294 6.32783 15.5294 6.13333C15.5294 5.93884 15.455 5.75232 15.3227 5.61479C15.1903 5.47726 15.0107 5.4 14.8235 5.4H9.17647ZM9.17647 9.8C8.98926 9.8 8.80972 9.87726 8.67734 10.0148C8.54496 10.1523 8.47059 10.3388 8.47059 10.5333C8.47059 10.7278 8.54496 10.9144 8.67734 11.0519C8.80972 11.1894 8.98926 11.2667 9.17647 11.2667H14.8235C15.0107 11.2667 15.1903 11.1894 15.3227 11.0519C15.455 10.9144 15.5294 10.7278 15.5294 10.5333C15.5294 10.3388 15.455 10.1523 15.3227 10.0148C15.1903 9.87726 15.0107 9.8 14.8235 9.8H9.17647ZM12.7059 16.4C12.7059 15.8165 12.4828 15.2569 12.0856 14.8444C11.6885 14.4318 11.1499 14.2 10.5882 14.2H2.11765C1.55601 14.2 1.01738 14.4318 0.620245 14.8444C0.223109 15.2569 0 15.8165 0 16.4V20.8C0 21.3835 0.223109 21.9431 0.620245 22.3556C1.01738 22.7682 1.55601 23 2.11765 23H10.5882C11.1499 23 11.6885 22.7682 12.0856 22.3556C12.4828 21.9431 12.7059 21.3835 12.7059 20.8V16.4ZM11.2941 19.3333V20.8C11.1069 20.8 10.9274 20.8773 10.795 21.0148C10.6626 21.1523 10.5882 21.3388 10.5882 21.5333H9.17647C9.17647 20.9499 9.39958 20.3903 9.79671 19.9777C10.1939 19.5651 10.7325 19.3333 11.2941 19.3333ZM10.5882 15.6667C10.5882 15.8612 10.6626 16.0477 10.795 16.1852C10.9274 16.3227 11.1069 16.4 11.2941 16.4V17.8667C10.7325 17.8667 10.1939 17.6349 9.79671 17.2223C9.39958 16.8097 9.17647 16.2501 9.17647 15.6667H10.5882ZM1.41176 16.4C1.59898 16.4 1.77852 16.3227 1.9109 16.1852C2.04328 16.0477 2.11765 15.8612 2.11765 15.6667H3.52941C3.52941 16.2501 3.3063 16.8097 2.90917 17.2223C2.51203 17.6349 1.9734 17.8667 1.41176 17.8667V16.4ZM2.11765 21.5333C2.11765 21.3388 2.04328 21.1523 1.9109 21.0148C1.77852 20.8773 1.59898 20.8 1.41176 20.8V19.3333C1.9734 19.3333 2.51203 19.5651 2.90917 19.9777C3.3063 20.3903 3.52941 20.9499 3.52941 21.5333H2.11765ZM4.23529 18.6C4.23529 18.3111 4.29007 18.025 4.39649 17.7581C4.50291 17.4912 4.6589 17.2487 4.85554 17.0444C5.05218 16.8401 5.28563 16.678 5.54255 16.5675C5.79948 16.4569 6.07485 16.4 6.35294 16.4C6.63103 16.4 6.9064 16.4569 7.16333 16.5675C7.42025 16.678 7.6537 16.8401 7.85034 17.0444C8.04699 17.2487 8.20297 17.4912 8.30939 17.7581C8.41581 18.025 8.47059 18.3111 8.47059 18.6C8.47059 19.1835 8.24748 19.7431 7.85034 20.1556C7.45321 20.5682 6.91458 20.8 6.35294 20.8C5.79131 20.8 5.25267 20.5682 4.85554 20.1556C4.4584 19.7431 4.23529 19.1835 4.23529 18.6Z" fill="#035DAD"/>
</svg>
