<svg width="18" height="18" viewBox="0 0 18 18" fill="none" xmlns="http://www.w3.org/2000/svg">
    <path
        d="M0.617597 6.33027C0.517712 6.36356 0.429173 6.4242 0.362051 6.50531C0.294928 6.58643 0.251918 6.68475 0.237911 6.78909C0.223904 6.89344 0.239463 6.99963 0.282819 7.09557C0.326175 7.19151 0.395586 7.27336 0.483158 7.3318L5.45739 10.0739C5.5501 10.125 5.65534 10.1489 5.76102 10.1428C5.8667 10.1368 5.96853 10.101 6.05481 10.0397L11.3393 6.27141C11.5946 6.10038 11.9001 6.40585 11.7291 6.6612L7.96081 11.9457C7.89948 12.0319 7.86373 12.1338 7.85768 12.2395C7.85163 12.3451 7.87552 12.4504 7.92661 12.5431L10.6687 17.5173C10.7271 17.6049 10.809 17.6743 10.9049 17.7177C11.0009 17.761 11.107 17.7766 11.2114 17.7626C11.3157 17.7486 11.4141 17.7056 11.4952 17.6384C11.5763 17.5713 11.6369 17.4828 11.6702 17.3829L16.8409 1.87073C16.8738 1.77168 16.8785 1.66543 16.8545 1.56386C16.8305 1.46229 16.7787 1.36941 16.7049 1.29561C16.6311 1.22181 16.5382 1.17 16.4366 1.14597C16.335 1.12194 16.2288 1.12664 16.1298 1.15956L0.617597 6.33027Z"
        fill="#006FFD" />
</svg>
