<svg width="18" height="18" viewBox="0 0 18 18" fill="none" xmlns="http://www.w3.org/2000/svg">
<path d="M14.4001 12.4487H12.5999V8.84888H14.4001V12.4487Z" fill="#006FFD"/>
<path fill-rule="evenodd" clip-rule="evenodd" d="M14.4001 0.749023C15.3928 0.749103 16.1997 1.55667 16.1997 2.54932V4.34888C17.1924 4.34888 18 5.15647 18 6.14917V15.1492C17.9999 16.1418 17.1924 16.9487 16.1997 16.9487H2.69971C1.61431 16.9486 0 16.2297 0 14.249V3.44873C0.000158978 1.96036 1.21134 0.749182 2.69971 0.749023H14.4001ZM1.80029 14.249C1.80029 14.9735 2.29491 15.1383 2.71069 15.1492H16.1997V6.14917H2.69971C2.38217 6.14913 2.08276 6.08382 1.80029 5.98218V14.249ZM2.69971 2.54932C2.46809 2.55976 2.24911 2.6586 2.08887 2.82617C1.92864 2.99375 1.83919 3.21688 1.83911 3.44873C1.83911 3.68069 1.92855 3.90437 2.08887 4.07202C2.24911 4.23957 2.46811 4.33844 2.69971 4.34888H14.4001V2.54932H2.69971Z" fill="#006FFD"/>
</svg>
