<svg width="44" height="44" viewBox="0 0 44 44" fill="none" xmlns="http://www.w3.org/2000/svg">
<path d="M22 0.25C34.0122 0.25 43.75 9.98781 43.75 22C43.75 34.0122 34.0122 43.75 22 43.75C9.98781 43.75 0.25 34.0122 0.25 22C0.25 9.98781 9.98781 0.25 22 0.25Z" fill="#D4D6DD"/>
<path d="M22 0.25C34.0122 0.25 43.75 9.98781 43.75 22C43.75 34.0122 34.0122 43.75 22 43.75C9.98781 43.75 0.25 34.0122 0.25 22C0.25 9.98781 9.98781 0.25 22 0.25Z" stroke="#C5C6CC" stroke-width="0.5"/>
<path d="M21.3519 13.1019C21.5238 12.93 21.7569 12.8335 22 12.8335C22.243 12.8335 22.4761 12.93 22.648 13.1019L25.398 15.8519C25.565 16.0248 25.6574 16.2564 25.6553 16.4967C25.6532 16.7371 25.5568 16.967 25.3869 17.1369C25.2169 17.3069 24.987 17.4033 24.7467 17.4054C24.5063 17.4075 24.2748 17.3151 24.1019 17.1481L22.9166 15.9628V24.7501C22.9166 24.9932 22.82 25.2264 22.6481 25.3983C22.4762 25.5702 22.2431 25.6668 22 25.6668C21.7568 25.6668 21.5237 25.5702 21.3518 25.3983C21.1799 25.2264 21.0833 24.9932 21.0833 24.7501V15.9628L19.898 17.1481C19.7252 17.3151 19.4936 17.4075 19.2533 17.4054C19.0129 17.4033 18.783 17.3069 18.613 17.1369C18.4431 16.967 18.3467 16.7371 18.3446 16.4967C18.3425 16.2564 18.4349 16.0248 18.6019 15.8519L21.3519 13.1019ZM14.6666 21.0834C14.6666 20.5972 14.8598 20.1308 15.2036 19.787C15.5474 19.4432 16.0137 19.25 16.5 19.25H18.3333C18.5764 19.25 18.8096 19.3466 18.9815 19.5185C19.1534 19.6904 19.25 19.9236 19.25 20.1667C19.25 20.4098 19.1534 20.643 18.9815 20.8149C18.8096 20.9868 18.5764 21.0834 18.3333 21.0834H16.5V29.3335H27.5V21.0834H25.6666C25.4235 21.0834 25.1904 20.9868 25.0184 20.8149C24.8465 20.643 24.75 20.4098 24.75 20.1667C24.75 19.9236 24.8465 19.6904 25.0184 19.5185C25.1904 19.3466 25.4235 19.25 25.6666 19.25H27.5C27.9862 19.25 28.4525 19.4432 28.7963 19.787C29.1401 20.1308 29.3333 20.5972 29.3333 21.0834V29.3335C29.3333 29.8197 29.1401 30.286 28.7963 30.6299C28.4525 30.9737 27.9862 31.1668 27.5 31.1668H16.5C16.0137 31.1668 15.5474 30.9737 15.2036 30.6299C14.8598 30.286 14.6666 29.8197 14.6666 29.3335V21.0834Z" fill="#494A50"/>
</svg>
