<svg width="24" height="24" viewBox="0 0 24 24" fill="none" xmlns="http://www.w3.org/2000/svg">
<path fill-rule="evenodd" clip-rule="evenodd" d="M20.4 2C21.3183 1.99995 22.2018 2.35079 22.8699 2.98074C23.538 3.61069 23.9401 4.47213 23.994 5.3888L24 5.6V17.6C24.0001 18.5183 23.6492 19.4018 23.0193 20.0699C22.3893 20.738 21.5279 21.1401 20.6112 21.194L20.4 21.2H3.6C2.68175 21.2001 1.79818 20.8492 1.13009 20.2193C0.461992 19.5893 0.059871 18.7279 0.00600014 17.8112L5.59254e-09 17.6V5.6C-5.11461e-05 4.68175 0.35079 3.79818 0.98074 3.13009C1.61069 2.46199 2.47213 2.05987 3.3888 2.006L3.6 2H20.4ZM21.6 9.2H2.4V17.6C2.40004 17.8939 2.50795 18.1776 2.70326 18.3972C2.89857 18.6169 3.1677 18.7572 3.4596 18.7916L3.6 18.8H20.4C20.6939 18.8 20.9776 18.6921 21.1972 18.4967C21.4169 18.3014 21.5572 18.0323 21.5916 17.7404L21.6 17.6V9.2ZM15.2484 10.9568L17.442 13.1516C17.667 13.3766 17.7933 13.6818 17.7933 14C17.7933 14.3182 17.667 14.6234 17.442 14.8484L15.2484 17.042C15.1377 17.1566 15.0053 17.248 14.8589 17.3109C14.7125 17.3738 14.555 17.4069 14.3957 17.4083C14.2363 17.4097 14.0783 17.3793 13.9309 17.319C13.7834 17.2586 13.6494 17.1695 13.5367 17.0569C13.4241 16.9442 13.335 16.8102 13.2746 16.6627C13.2143 16.5153 13.1839 16.3573 13.1853 16.1979C13.1867 16.0386 13.2198 15.8811 13.2827 15.7347C13.3456 15.5883 13.437 15.4559 13.5516 15.3452L13.6956 15.2H8.4C8.08174 15.2 7.77652 15.0736 7.55147 14.8485C7.32643 14.6235 7.2 14.3183 7.2 14C7.2 13.6817 7.32643 13.3765 7.55147 13.1515C7.77652 12.9264 8.08174 12.8 8.4 12.8H13.6968L13.5516 12.6548C13.3264 12.4298 13.1999 12.1245 13.1998 11.8062C13.1996 11.4879 13.326 11.1826 13.551 10.9574C13.776 10.7322 14.0813 10.6057 14.3996 10.6056C14.7179 10.6054 15.0232 10.7318 15.2484 10.9568ZM20.4 4.4H3.6C3.28174 4.4 2.97652 4.52643 2.75147 4.75147C2.52643 4.97652 2.4 5.28174 2.4 5.6V6.8H21.6V5.6C21.6 5.28174 21.4736 4.97652 21.2485 4.75147C21.0235 4.52643 20.7183 4.4 20.4 4.4Z" fill="#8F9098"/>
</svg>
