<svg width="24" height="24" viewBox="0 0 24 24" fill="none" xmlns="http://www.w3.org/2000/svg">
<path d="M3.74622 21.2571H7.87121V14.4C7.87121 14.0114 8.00321 13.6859 8.26721 13.4235C8.53121 13.1611 8.85755 13.0295 9.24621 13.0286H14.7462C15.1358 13.0286 15.4626 13.1602 15.7266 13.4235C15.9906 13.6869 16.1221 14.0123 16.1212 14.4V21.2571H20.2462V8.91428L11.9962 2.74286L3.74622 8.91428V21.2571ZM0.996216 21.2571V8.91428C0.996216 8.48 1.09384 8.06857 1.28909 7.68C1.48434 7.29143 1.75338 6.97143 2.09622 6.72L10.3462 0.548571C10.8275 0.182857 11.3775 0 11.9962 0C12.615 0 13.165 0.182857 13.6462 0.548571L21.8962 6.72C22.24 6.97143 22.5095 7.29143 22.7047 7.68C22.9 8.06857 22.9971 8.48 22.9962 8.91428V21.2571C22.9962 22.0114 22.7267 22.6574 22.1877 23.195C21.6487 23.7326 21.0015 24.0009 20.2462 24H14.7462C14.3566 24 14.0303 23.8683 13.7672 23.605C13.5041 23.3417 13.3721 23.0162 13.3712 22.6286V15.7714H10.6212V22.6286C10.6212 23.0171 10.4892 23.3431 10.2252 23.6064C9.96121 23.8697 9.63488 24.0009 9.24621 24H3.74622C2.98997 24 2.3428 23.7317 1.80472 23.195C1.26663 22.6583 0.997132 22.0123 0.996216 21.2571Z" fill="#8F9098"/>
</svg>
