<svg width="24" height="24" viewBox="0 0 24 24" fill="none" xmlns="http://www.w3.org/2000/svg">
<path d="M4.23529 4.8C4.23529 4.05739 4.53277 3.3452 5.06229 2.8201C5.5918 2.295 6.30998 2 7.05882 2H16.9412C17.69 2 18.4082 2.295 18.9377 2.8201C19.4672 3.3452 19.7647 4.05739 19.7647 4.8V14.6H24V17.4C24 18.5139 23.5538 19.5822 22.7595 20.3698C21.9652 21.1575 20.888 21.6 19.7647 21.6H14.0471C14.0941 21.3732 14.1176 21.1399 14.1176 20.9V20.2H18.3529V4.8C18.3529 4.4287 18.2042 4.0726 17.9394 3.81005C17.6747 3.5475 17.3156 3.4 16.9412 3.4H7.05882C6.6844 3.4 6.32531 3.5475 6.06056 3.81005C5.7958 4.0726 5.64706 4.4287 5.64706 4.8V13.2H4.23529V4.8ZM22.5882 16H19.7647V20.2C20.5136 20.2 21.2317 19.905 21.7612 19.3799C22.2908 18.8548 22.5882 18.1426 22.5882 17.4V16ZM8.47059 6.9C8.47059 6.71435 8.54496 6.5363 8.67734 6.40503C8.80972 6.27375 8.98926 6.2 9.17647 6.2H14.8235C15.0107 6.2 15.1903 6.27375 15.3227 6.40503C15.455 6.5363 15.5294 6.71435 15.5294 6.9C15.5294 7.08565 15.455 7.2637 15.3227 7.39497C15.1903 7.52625 15.0107 7.6 14.8235 7.6H9.17647C8.98926 7.6 8.80972 7.52625 8.67734 7.39497C8.54496 7.2637 8.47059 7.08565 8.47059 6.9ZM8.47059 11.1C8.47059 10.9143 8.54496 10.7363 8.67734 10.605C8.80972 10.4737 8.98926 10.4 9.17647 10.4H14.8235C15.0107 10.4 15.1903 10.4737 15.3227 10.605C15.455 10.7363 15.5294 10.9143 15.5294 11.1C15.5294 11.2857 15.455 11.4637 15.3227 11.595C15.1903 11.7263 15.0107 11.8 14.8235 11.8H9.17647C8.98926 11.8 8.80972 11.7263 8.67734 11.595C8.54496 11.4637 8.47059 11.2857 8.47059 11.1ZM12.7059 16.7C12.7059 16.143 12.4828 15.6089 12.0856 15.2151C11.6885 14.8212 11.1499 14.6 10.5882 14.6H2.11765C1.55601 14.6 1.01738 14.8212 0.620245 15.2151C0.223109 15.6089 0 16.143 0 16.7V20.9C0 21.457 0.223109 21.9911 0.620245 22.3849C1.01738 22.7787 1.55601 23 2.11765 23H10.5882C11.1499 23 11.6885 22.7787 12.0856 22.3849C12.4828 21.9911 12.7059 21.457 12.7059 20.9V16.7ZM11.2941 19.5V20.9C11.1069 20.9 10.9274 20.9737 10.795 21.105C10.6626 21.2363 10.5882 21.4143 10.5882 21.6H9.17647C9.17647 21.043 9.39958 20.5089 9.79671 20.1151C10.1939 19.7212 10.7325 19.5 11.2941 19.5ZM10.5882 16C10.5882 16.1857 10.6626 16.3637 10.795 16.495C10.9274 16.6263 11.1069 16.7 11.2941 16.7V18.1C10.7325 18.1 10.1939 17.8788 9.79671 17.4849C9.39958 17.0911 9.17647 16.557 9.17647 16H10.5882ZM1.41176 16.7C1.59898 16.7 1.77852 16.6263 1.9109 16.495C2.04328 16.3637 2.11765 16.1857 2.11765 16H3.52941C3.52941 16.557 3.3063 17.0911 2.90917 17.4849C2.51203 17.8788 1.9734 18.1 1.41176 18.1V16.7ZM2.11765 21.6C2.11765 21.4143 2.04328 21.2363 1.9109 21.105C1.77852 20.9737 1.59898 20.9 1.41176 20.9V19.5C1.9734 19.5 2.51203 19.7212 2.90917 20.1151C3.3063 20.5089 3.52941 21.043 3.52941 21.6H2.11765ZM4.23529 18.8C4.23529 18.5242 4.29007 18.2511 4.39649 17.9964C4.50291 17.7416 4.6589 17.5101 4.85554 17.3151C5.05218 17.1201 5.28563 16.9654 5.54255 16.8599C5.79948 16.7543 6.07485 16.7 6.35294 16.7C6.63103 16.7 6.9064 16.7543 7.16333 16.8599C7.42025 16.9654 7.6537 17.1201 7.85034 17.3151C8.04699 17.5101 8.20297 17.7416 8.30939 17.9964C8.41581 18.2511 8.47059 18.5242 8.47059 18.8C8.47059 19.357 8.24748 19.8911 7.85034 20.2849C7.45321 20.6787 6.91458 20.9 6.35294 20.9C5.79131 20.9 5.25267 20.6787 4.85554 20.2849C4.4584 19.8911 4.23529 19.357 4.23529 18.8Z" fill="#8F9098"/>
</svg>
