<svg width="40" height="40" viewBox="0 0 40 40" fill="none" xmlns="http://www.w3.org/2000/svg">
<path d="M20 23.3333C19.558 23.3333 19.134 23.1577 18.8215 22.8452C18.5089 22.5326 18.3333 22.1087 18.3333 21.6667V16.6667C18.3333 16.2246 18.5089 15.8007 18.8215 15.4882C19.134 15.1756 19.558 15 20 15C20.442 15 20.866 15.1756 21.1785 15.4882C21.4911 15.8007 21.6667 16.2246 21.6667 16.6667V21.6667C21.6667 22.1087 21.4911 22.5326 21.1785 22.8452C20.866 23.1577 20.442 23.3333 20 23.3333ZM17.5 27.5C17.5 26.837 17.7634 26.2011 18.2322 25.7322C18.7011 25.2634 19.337 25 20 25C20.663 25 21.2989 25.2634 21.7678 25.7322C22.2366 26.2011 22.5 26.837 22.5 27.5C22.5 28.163 22.2366 28.7989 21.7678 29.2678C21.2989 29.7366 20.663 30 20 30C19.337 30 18.7011 29.7366 18.2322 29.2678C17.7634 28.7989 17.5 28.163 17.5 27.5Z" fill="#006FFD"/>
<path d="M17.05 5.36035C18.3 2.98535 21.7 2.98535 22.95 5.36035L36.855 31.7804C38.0234 34.0004 36.4167 36.667 33.905 36.667H6.09503C3.58669 36.667 1.97836 34.0004 3.14503 31.782L17.05 5.36035ZM33.9067 33.3337L20 6.91202L6.09336 33.3337H33.9067Z" fill="#006FFD"/>
</svg>
