<svg width="61" height="23" viewBox="0 0 61 23" fill="none" xmlns="http://www.w3.org/2000/svg">
<path d="M17.801 4.39795C24.0404 3.59683 27.8069 6.11462 23.3853 10.0221C18.5216 14.3383 8.3519 17.3465 7.84424 17.461C7.3202 17.5754 7.23831 16.8888 8.56479 16.4146C9.87489 15.9405 12.6589 14.6326 15.6393 12.8832C20.2738 10.1692 21.4693 6.34351 19.193 5.67319C17.2442 5.10096 12.1021 7.11192 8.10626 12.0984C3.37351 17.9678 4.06132 24.1805 11.2996 22.8072C18.9637 21.3521 24.7609 15.0904 25.3832 14.371C26.071 13.5862 26.3822 12.687 26.3822 11.7388V0H0V16.9542C1.96515 11.7224 8.36828 5.60779 17.801 4.39795Z" fill="#E1251B"/>
<path d="M55.2045 14.3054L53.0919 16.9049C52.5679 17.5426 51.7982 17.9186 50.963 17.9186H49.5874L52.5351 14.3054H55.2045Z" fill="#E1251B"/>
<path d="M58.1522 7.40601L55.2045 11.0192L52.2731 7.40601H49.5874L55.2045 14.3054L58.1522 17.9186H60.8379L56.5473 12.6541L60.8379 7.40601H58.1522Z" fill="#002E6D"/>
<path d="M36.6664 15.8425C35.602 15.8425 35.1271 15.3684 35.1271 14.3057V9.48265H37.4689V7.4063H35.1271V5.06836H33.0473V7.4063H31.6389V9.48265H33.0473V14.3057C33.0473 16.6763 34.3082 17.9189 36.6664 17.9189H37.9438V15.8425H36.6664Z" fill="#002E6D"/>
<path d="M47.1311 14.3054C47.1311 15.3681 46.6562 15.8422 45.5917 15.8422H42.3001C41.2356 15.8422 40.7607 15.3681 40.7607 14.3054C40.7607 13.2427 40.7607 14.1909 40.9081 14.1419L47.1311 12.7195V14.3217V14.3054ZM45.5917 7.40601H42.3001C39.9255 7.40601 38.6809 8.6649 38.6809 11.0192V11.3625H40.7607V11.0192C40.7607 9.95649 41.2356 9.48236 42.3001 9.48236H45.5917C46.4924 9.48236 46.9673 9.82569 47.0983 10.5778L40.3677 12.0982C38.9757 12.3925 38.6809 13.7168 38.6809 14.7632C38.6809 17.3627 40.6461 17.9186 42.3001 17.9186H45.5917C47.9663 17.9186 49.2109 16.676 49.2109 14.3054V11.0192C49.2109 8.64855 47.9499 7.40601 45.5917 7.40601Z" fill="#002E6D"/>
</svg>
