<svg width="20" height="20" viewBox="0 0 20 20" fill="none" xmlns="http://www.w3.org/2000/svg">
<path d="M2.5 2.66671C2.5 2.18048 2.69754 1.71416 3.04917 1.37034C3.40081 1.02653 3.87772 0.833374 4.375 0.833374H11.875C12.1236 0.833426 12.362 0.930037 12.5378 1.10196L17.2253 5.68529C17.4011 5.85716 17.4999 6.09028 17.5 6.33337V17.3334C17.5 17.8196 17.3025 18.2859 16.9508 18.6297C16.5992 18.9736 16.1223 19.1667 15.625 19.1667H4.375C3.87772 19.1667 3.40081 18.9736 3.04917 18.6297C2.69754 18.2859 2.5 17.8196 2.5 17.3334V2.66671ZM15.2369 6.33337L11.875 3.04621V6.33337H15.2369ZM10 2.66671H4.375V17.3334H15.625V8.16671H10.9375C10.6889 8.16671 10.4504 8.07013 10.2746 7.89822C10.0988 7.72631 10 7.49316 10 7.25004V2.66671ZM6.25 10.9167C6.25 10.6736 6.34877 10.4404 6.52459 10.2685C6.7004 10.0966 6.93886 10 7.1875 10H12.8125C13.0611 10 13.2996 10.0966 13.4754 10.2685C13.6512 10.4404 13.75 10.6736 13.75 10.9167C13.75 11.1598 13.6512 11.393 13.4754 11.5649C13.2996 11.7368 13.0611 11.8334 12.8125 11.8334H7.1875C6.93886 11.8334 6.7004 11.7368 6.52459 11.5649C6.34877 11.393 6.25 11.1598 6.25 10.9167ZM6.25 14.5834C6.25 14.3403 6.34877 14.1071 6.52459 13.9352C6.7004 13.7633 6.93886 13.6667 7.1875 13.6667H12.8125C13.0611 13.6667 13.2996 13.7633 13.4754 13.9352C13.6512 14.1071 13.75 14.3403 13.75 14.5834C13.75 14.8265 13.6512 15.0596 13.4754 15.2316C13.2996 15.4035 13.0611 15.5 12.8125 15.5H7.1875C6.93886 15.5 6.7004 15.4035 6.52459 15.2316C6.34877 15.0596 6.25 14.8265 6.25 14.5834Z" fill="#E86339"/>
</svg>
