<svg width="40" height="40" viewBox="0 0 40 40" fill="none" xmlns="http://www.w3.org/2000/svg">
<mask id="mask0_3831_5441" style="mask-type:alpha" maskUnits="userSpaceOnUse" x="1" y="1" width="38" height="38">
<circle cx="20" cy="19.9993" r="18.3333" fill="#D9D9D9"/>
</mask>
<g mask="url(#mask0_3831_5441)">
<rect width="40" height="40" fill="#006FFD"/>
</g>
<path fill-rule="evenodd" clip-rule="evenodd" d="M16.0553 18.0216C16.0553 17.1011 16.8015 16.3549 17.722 16.3549H20C20.9205 16.3549 21.6666 17.1011 21.6666 18.0216V25.7828H23.6764C24.5969 25.7828 25.3431 26.529 25.3431 27.4495C25.3431 28.37 24.5969 29.1162 23.6764 29.1162H16.3235C15.4031 29.1162 14.6569 28.37 14.6569 27.4495C14.6569 26.529 15.4031 25.7828 16.3235 25.7828H18.3333V19.6882H17.722C16.8015 19.6882 16.0553 18.942 16.0553 18.0216Z" fill="white"/>
<path d="M22.0543 13.0636C22.0543 14.268 21.078 15.2444 19.8735 15.2444C18.6691 15.2444 17.6927 14.268 17.6927 13.0636C17.6927 11.8592 18.6691 10.8828 19.8735 10.8828C21.078 10.8828 22.0543 11.8592 22.0543 13.0636Z" fill="white"/>
</svg>
