<svg width="240" height="240" viewBox="0 0 240 240" fill="none" xmlns="http://www.w3.org/2000/svg">
<g filter="url(#filter0_d_1086_14337)">
<path d="M119.52 173.824C149.511 173.824 173.823 149.511 173.823 119.52C173.823 89.5296 149.511 65.2173 119.52 65.2173C89.5294 65.2173 65.217 89.5296 65.217 119.52C65.217 149.511 89.5294 173.824 119.52 173.824Z" fill="white"/>
<path d="M149.603 86.9705C148.067 84.0997 145.317 81.4311 142.608 79.6924C141.921 80.4606 140.95 81.9971 140.91 83.008C140.667 88.1027 141.719 93.3591 141.274 98.4943C141.112 100.314 138.807 100.516 137.352 100.88C139.131 99.0604 140.303 96.9982 137.877 95.0978C136.26 93.8039 134.724 94.087 133.147 95.1787C131.246 96.5534 129.871 98.373 128.699 100.516C127.082 99.2221 125.868 98.3325 123.604 98.5751C121.744 98.7773 119.076 101.567 119.076 101.567L117.579 103.144C116.447 104.236 113.455 107.956 111.757 106.096C110.423 104.64 112.606 101.203 113.091 99.6669C113.091 99.6669 112 100.799 111.353 102.012C110.948 102.78 110.584 103.549 110.463 104.438C110.018 107.147 111.838 110.058 114.628 108.037C115.396 107.471 119.642 102.578 122.189 101.608C123.079 101.284 125.302 100.799 126.92 102.336C127.203 102.619 127.526 102.861 127.648 103.063C127.526 103.427 127.324 103.832 127.203 104.196L127.526 104.438C127.728 104.155 127.971 103.71 128.173 103.427C128.658 103.549 129.346 103.67 130.195 103.751C134.441 104.034 142.325 102.74 142.851 96.9982C143.255 92.3887 142.851 87.7388 142.77 83.0889C142.972 82.8867 144.509 84.221 144.751 84.4232C148.309 87.7792 153.202 95.6639 148.309 99.7477C147.986 100.031 146.369 101.123 145.6 101.486C144.387 102.093 141.88 102.861 141.193 103.872L143.538 103.71C143.538 103.71 144.226 103.751 145.641 103.185C151.989 100.718 152.636 92.3887 149.725 86.9705H149.603ZM129.346 101.082C130.559 98.8986 132.823 95.583 135.694 96.7556C136.381 97.0387 138.12 98.3325 137.877 99.1412C135.532 101.001 132.298 101.931 129.346 101.042V101.082Z" fill="#005FAD"/>
<path d="M118.631 72.8593C118.186 73.4658 117.377 74.1127 117.296 74.9214C117.296 75.3258 117.498 75.7301 117.498 76.1345C117.498 78.6818 117.741 97.7667 117.498 103.387C117.418 105.207 116.932 106.622 116.932 106.622C116.932 106.622 117.418 106.622 117.822 105.975C118.671 104.56 118.711 104.115 118.833 101.204C118.995 98.2924 119.116 80.4205 118.914 77.1857C119.358 76.8623 119.52 77.4688 119.763 77.4283H119.965L118.631 72.8188V72.8593Z" fill="#005FAD"/>
<path d="M111.514 99.0202C111.433 98.6159 110.867 97.5241 110.867 97.5241C110.665 97.7667 110.059 98.9798 110.059 98.9798C110.059 98.9798 110.746 100.071 110.665 100.678C110.584 101.325 110.14 101.527 109.169 101.487C107.552 101.406 107.228 100.557 107.431 99.1011C107.431 98.8585 107.592 98.6563 107.754 98.4541C107.511 98.4541 107.228 98.4541 107.067 98.535C106.905 98.6159 105.126 99.1819 104.802 99.3033C100.799 100.597 93.2381 102.255 89.7608 99.3033C87.7795 97.6859 89.1138 95.7046 89.7608 93.8042C88.7095 94.4511 88.0625 95.9472 87.8604 97.1602C86.526 104.438 94.6533 103.791 99.3841 102.781C101.689 102.295 103.913 101.406 106.177 100.759C105.854 102.781 108.36 104.358 109.574 103.508C110.099 103.104 110.827 102.336 111.231 101.406C111.595 100.557 111.676 99.6267 111.555 99.0606L111.514 99.0202Z" fill="#005FAD"/>
<path d="M107.875 97.4028C107.633 97.6454 107.39 97.8476 107.309 98.0902C107.552 98.0902 107.794 98.0498 108.037 98.0902C109.331 96.8772 110.544 96.0685 110.827 95.8663C110.908 95.7855 110.746 95.745 110.706 95.7855C110.342 95.9472 109.371 96.7559 108.765 96.392C108.643 96.3111 108.603 96.1898 108.563 96.1089C108.482 95.8259 108.724 95.5428 109.007 95.462C109.493 95.3002 109.776 95.462 109.776 95.462C110.059 95.1385 110.099 94.7342 109.654 94.4916C108.926 94.0872 106.177 96.5941 107.835 97.4028H107.875Z" fill="#005FAD"/>
<path d="M130.276 95.5833L128.658 94.2086L130.155 92.5508L131.731 93.966L130.276 95.5833Z" fill="#005FAD"/>
<path d="M100.921 106.945L99.3032 105.57L100.799 103.913L102.336 105.328L100.921 106.945Z" fill="#005FAD"/>
<path d="M139.454 84.7468C137.877 81.6738 135.047 86.6876 133.753 87.4963C132.621 88.1837 128.901 89.235 127.567 89.3158C125.504 89.4776 121.784 89.3158 122.351 86.3237C125.504 88.0219 131.327 86.3237 133.066 83.2507C133.996 81.6333 133.915 80.6225 132.621 79.2477C129.79 76.3364 126.96 78.8434 124.938 81.1481C124.534 81.5929 122.957 83.6146 122.957 83.6146C122.957 83.6146 121.987 83.0081 121.744 82.6846C121.501 82.3611 121.259 81.7951 121.38 81.3099C121.421 81.1481 121.218 80.9864 121.218 80.9864C121.218 80.9864 120.208 81.8355 119.965 82.0377C119.601 82.3207 117.984 83.372 117.215 83.4124C115.396 83.4124 114.87 82.5633 114.708 80.8246C114.425 77.9942 114.991 74.9617 114.708 71.9291C114.628 71.08 114.466 69.9074 114.102 69.1392L113.212 70.3118C113.212 72.0504 115.113 80.6225 110.786 84.0189C108.805 85.5959 105.853 85.6363 105.085 88.305C107.066 88.9115 109.169 89.3158 111.231 89.6393C111.514 89.6797 111.797 89.6393 111.838 90.0032C109.412 90.8119 106.743 91.9845 104.115 91.5801C101.001 91.1354 102.174 85.7172 98.4135 88.9115C97.4431 89.7202 96.7961 90.731 96.1492 91.8227C95.3809 93.0762 95.017 95.5023 93.1166 94.6127C91.4992 93.8849 92.2675 89.6393 92.4292 88.2645C92.4292 88.0624 92.5505 87.4154 92.2675 87.658C91.2162 88.9923 90.8523 91.378 91.0545 93.0762C91.1758 94.3297 91.9844 97.0792 93.6018 96.9174C95.3405 96.7557 96.6748 92.308 97.807 91.1354C100.273 88.6284 100.476 92.6314 102.093 93.6423C103.346 94.4105 105.651 94.1275 107.026 93.804C110.463 93.0358 113.576 90.6097 117.215 90.8928C117.215 90.8928 117.862 90.9736 118.105 91.0949C118.307 91.1758 118.55 91.2567 118.752 91.378C118.752 91.2567 119.561 89.5584 119.844 88.9519C119.399 88.8306 110.099 86.8089 110.099 86.8089C110.099 86.8089 111.676 84.9489 111.959 84.6659C112.404 84.1402 113.01 83.1698 113.495 82.442C113.212 84.7468 115.477 86.6067 117.175 85.7576C118.873 84.9085 119.601 83.6955 119.924 83.4124C120.127 83.2911 120.167 84.0998 120.652 84.9085C121.057 85.515 121.663 86.0407 121.663 86.0407C121.663 86.0407 121.38 86.728 121.34 87.0919C121.016 90.0436 121.906 91.5801 124.979 91.7823C126.637 91.9036 131.933 90.6502 133.227 89.6797C133.753 89.2754 133.955 88.5476 134.602 88.3858C135.451 89.0328 137.432 90.3267 138.484 89.9628C138.807 89.8415 139.495 88.6284 139.616 88.2645C139.939 87.2537 140.02 85.6767 139.535 84.7063L139.454 84.7468ZM123.725 83.6955C124.534 82.5633 126.232 80.6629 127.607 80.4607C129.71 80.0968 131.286 81.1481 132.459 82.8059C129.912 84.2615 126.556 85.0702 123.725 84.0594C123.402 83.9381 123.604 83.8572 123.725 83.6955ZM136.745 86.728C136.502 86.6067 136.219 86.5259 136.381 86.2833C136.786 85.6767 138.241 86.6876 137.999 87.3345C137.918 87.4154 136.947 86.8089 136.745 86.728Z" fill="#005FAD"/>
<path d="M96.3515 83.8169L97.888 85.313L96.3919 87.2134L95.098 86.0812L94.2085 87.2134L92.5103 85.7577C93.0359 84.9491 93.3594 84.4638 93.9255 83.8573L95.3406 84.8682C95.5833 84.666 96.3111 83.8169 96.3919 83.8169H96.3515Z" fill="#005FAD"/>
<path d="M111.999 110.018C111.555 110.058 109.654 112.08 108.805 112.363C107.43 112.808 106.177 112.444 105.287 111.352C104.034 109.816 104.398 107.915 101.648 109.654C98.8988 111.393 100.637 110.463 100.152 111.15C99.5458 111.999 98.0093 115.234 97.5645 115.517C97.241 115.76 96.7558 115.719 96.3515 115.638C94.4915 115.234 94.9767 110.867 95.2597 109.169C95.3406 108.684 95.2597 108.481 95.1384 108.481C94.8958 108.764 94.6532 109.25 94.5724 109.452C93.7637 111.069 93.7637 117.256 95.9875 117.741C97.0388 117.983 97.7666 117.013 98.3327 116.245C99.2627 114.91 99.7884 112.808 101.042 111.837C103.266 110.139 103.185 112.363 104.155 113.697C105.004 114.87 106.298 115.153 107.713 114.951C109.331 114.749 110.059 112.525 111.191 112.201C111.919 111.999 110.584 113.859 110.908 114.061C111.595 113.657 113.576 109.856 111.999 109.978V110.018Z" fill="#005FAD"/>
<path d="M120.046 118.752C119.682 119.197 119.399 118.065 119.075 117.822C117.337 116.528 114.021 118.833 112.646 119.965C111.11 121.259 108.401 124.777 106.339 124.494C102.416 123.887 104.681 117.175 106.743 115.517C107.066 115.517 106.056 117.256 105.772 118.105C105.328 119.358 104.317 122.148 106.46 122.431C108.643 122.755 111.676 118.792 113.374 117.499C114.991 116.245 117.903 114.264 120.005 115.315C120.976 115.8 121.016 117.256 120.571 118.105C120.127 118.954 120.329 118.469 120.046 118.792V118.752Z" fill="#005FAD"/>
<path d="M147.784 102.659C147.339 103.266 146.53 103.913 146.449 104.721C146.449 105.126 146.652 105.53 146.652 105.934C146.652 108.482 146.894 116.609 146.652 122.229C146.571 124.049 146.085 125.464 146.085 125.464C146.085 125.464 146.571 125.464 146.975 124.817C147.824 123.402 147.865 122.957 147.986 120.046C148.148 117.135 148.269 110.22 148.067 106.986C148.511 106.662 148.673 107.269 148.916 107.228H149.118L147.784 102.619V102.659Z" fill="#005FAD"/>
<path d="M128.092 107.916L129.629 109.412L128.133 111.312L126.839 110.18L125.949 111.312L124.251 109.856C124.777 109.048 125.1 108.562 125.666 107.956L127.081 108.967C127.324 108.765 128.052 107.916 128.133 107.916H128.092Z" fill="#005FAD"/>
<path d="M96.1896 106.096L97.7261 107.592L96.2301 109.493L94.9362 108.361L94.0466 109.493L92.3484 108.037C92.874 107.228 93.1975 106.743 93.7636 106.137L95.1788 107.147C95.4214 106.945 96.1492 106.096 96.2301 106.096H96.1896Z" fill="#005FAD"/>
<path d="M110.584 115.396L112.121 116.892L110.625 118.792L109.331 117.66L108.441 118.792L106.743 117.337C107.269 116.528 107.592 116.043 108.158 115.436L109.573 116.447C109.816 116.245 110.544 115.396 110.625 115.396H110.584Z" fill="#005FAD"/>
<path d="M144.751 91.0951C144.306 91.7016 143.498 92.3486 143.417 93.1573C143.417 93.5616 143.619 93.9659 143.619 94.3703C143.619 96.9176 144.145 104.883 144.064 110.504C144.023 113.577 143.376 118.226 143.376 118.226C143.093 119.723 139.414 118.954 138.969 118.267C139.778 117.943 140.91 117.58 141.031 117.499C141.355 117.296 142.608 115.477 142.487 115.275C140.061 113.415 136.502 113.132 134.117 113.738C132.661 114.102 131.893 115.032 131.65 116.488C131.65 116.542 131.691 116.542 131.772 116.488C132.863 116.043 134.926 116.73 135.209 117.741C133.308 118.186 131.084 118.429 129.184 117.984C129.386 117.58 129.467 117.458 129.669 117.094C130.437 115.679 130.518 114.062 129.952 112.93C129.305 111.717 128.497 112.364 127.728 113.01C126.151 114.304 125.302 116.003 125.585 118.105C124.615 118.226 123.927 118.105 123.523 117.701C122.351 116.73 122.674 114.749 122.917 112.121C123.564 105.409 123.644 97.8881 123.078 94.6938C122.876 93.5212 122.674 92.5508 122.472 91.9038L121.421 94.3299C121.542 95.7451 121.946 98.2924 122.027 101.365C122.148 106.864 121.259 112.727 121.34 116.771C121.34 119.237 121.946 120.895 124.817 120.612C125.545 120.531 126.354 119.925 126.758 119.925C127.122 119.925 128.213 120.45 128.78 120.572C131.489 121.138 134.036 120.572 136.381 119.197C137.999 120.612 140.627 122.674 142.689 120.895C144.549 119.278 145.075 116.65 145.196 114.345C145.398 110.867 145.196 96.9176 145.075 95.4216C145.519 95.0981 145.681 95.7046 145.924 95.6642H146.126L144.792 91.0547L144.751 91.0951ZM128.254 114.507C128.982 114.628 129.063 116.164 128.941 116.771C128.82 117.094 127.93 117.377 127.486 117.256C126.839 117.094 126.475 116.488 126.556 116.083C126.798 115.356 127.567 114.345 128.254 114.507ZM137.554 116.892C137.109 116.609 136.664 116.286 136.462 115.598C137.069 115.396 138.605 115.679 139.009 116.083C138.807 116.569 137.756 117.013 137.554 116.892Z" fill="#005FAD"/>
<path d="M166.99 133.834C166.707 133.511 166.302 133.309 165.858 133.309H148.511C147.743 133.309 147.096 133.955 147.096 134.724V147.784L145.155 150.291V137.19C145.155 136.745 144.953 136.341 144.63 136.098L131.206 125.464C131.206 125.464 131.206 125.464 131.165 125.464C131.165 125.464 131.084 125.424 131.044 125.383C131.003 125.343 130.963 125.343 130.923 125.303C130.923 125.303 130.842 125.303 130.801 125.262C130.72 125.262 130.64 125.222 130.518 125.222C130.478 125.222 130.437 125.222 130.397 125.222H119.237C118.469 125.222 117.822 125.869 117.822 126.637V148.795L113.455 142.285V132.015C113.455 131.246 112.808 130.599 112.04 130.599H104.236C103.468 130.599 102.821 131.246 102.821 132.015V145.762L100.395 144.185V128.052C100.395 127.284 99.7478 126.637 98.9795 126.637H87.9006L81.9163 122.108C81.6737 121.906 81.3502 121.825 81.0672 121.825H65.2979C65.2979 122.31 65.3383 122.755 65.3787 123.24C65.3787 123.726 65.4596 124.17 65.5 124.656C66.6726 137.352 72.2121 148.795 80.6224 157.407C82.6037 159.469 84.7467 161.37 87.0514 163.068C89.2753 164.766 91.6609 166.262 94.1679 167.597C95.3 168.203 96.4322 168.729 97.5643 169.255C99.2626 170.023 101.042 170.71 102.821 171.276C103.063 171.357 103.306 171.438 103.549 171.478C103.791 171.519 104.034 171.64 104.276 171.681C104.762 171.802 105.206 171.964 105.692 172.085V133.43H110.665V142.689C110.665 142.972 110.746 143.255 110.908 143.457L116.326 151.544V173.743C116.811 173.743 117.337 173.783 117.862 173.824C118.307 173.824 118.711 173.824 119.156 173.824C119.318 173.824 119.439 173.824 119.601 173.824C119.965 173.824 120.329 173.824 120.693 173.824V127.971H129.022V173.015C129.993 172.853 130.923 172.651 131.853 172.449V129.508L142.446 137.918V168.85C142.932 168.648 143.376 168.405 143.821 168.163C144.306 167.92 144.751 167.678 145.236 167.435C145.721 167.192 146.166 166.909 146.611 166.667C147.743 166.02 148.875 165.292 149.967 164.564C156.032 160.44 161.248 155.103 165.211 148.916C166.747 146.53 168.082 144.024 169.254 141.395C169.456 140.91 169.699 140.425 169.901 139.899C170.103 139.374 170.305 138.888 170.508 138.363L167.03 133.955L166.99 133.834Z" fill="#005FAD"/>
<path d="M165.211 136.098V148.794C161.248 154.981 156.032 160.318 149.967 164.443V136.098H165.211Z" fill="white"/>
<path d="M80.5416 124.534V157.286C72.1313 148.633 66.5918 137.231 65.4192 124.534H80.5416Z" fill="white"/>
<path d="M97.4836 129.346V169.133C96.311 168.607 95.1788 168.082 94.0871 167.475C91.5802 166.141 89.235 164.645 86.9707 162.946V129.305H97.4836V129.346Z" fill="white"/>
<path d="M194 119.52C194 160.682 160.642 194.04 119.48 194.04C78.3178 194.04 45 160.642 45 119.52C45 78.3986 78.3582 45 119.52 45C160.682 45 194.04 78.3582 194.04 119.52H194ZM119.52 65.2171C89.5181 65.2171 65.2171 89.5181 65.2171 119.52C65.2171 149.522 89.5181 173.823 119.52 173.823C149.522 173.823 173.823 149.522 173.823 119.52C173.823 89.5181 149.482 65.2171 119.52 65.2171Z" fill="#005FAD"/>
<path d="M67.8858 71.0801L68.3306 72.657L67.1176 73.1018L67.5623 74.3552L65.9854 74.9213L65.5811 73.4253L66.7941 72.9401L66.4302 71.6462L67.8858 71.0801ZM76.8218 76.8217L76.1344 77.59C76.0131 77.7113 75.8513 77.8326 75.6896 77.9135C75.3661 78.0348 75.0022 78.0752 74.5979 77.9135C74.0318 77.7517 73.3444 77.4282 72.6166 76.8622C72.6975 77.4282 72.6975 77.8326 72.6975 78.0752C72.6975 78.4795 72.6166 78.7221 72.4953 78.8839C72.4144 78.9647 72.3336 79.0456 72.2123 79.1265L71.4036 79.733C71.0801 79.9756 70.8375 80.1373 70.7566 80.1778C70.6758 80.2182 70.5949 80.1778 70.514 80.1778C70.4332 80.0969 70.231 79.6521 69.9479 78.9243C69.6649 78.1561 69.5436 77.6709 69.5032 77.4282C69.5032 77.2261 69.5032 76.943 69.584 76.5387C69.6245 76.2961 69.7053 75.9726 69.7862 75.5683L69.9075 75.0831C69.8266 75.0831 69.7862 75.0022 69.7458 74.9618C69.7053 74.9213 69.6245 74.8809 69.584 74.8405C69.4627 74.7192 69.301 74.517 69.1393 74.2744C68.9775 74.0318 68.8562 73.6679 68.6945 73.1827L72.6166 75.7704C73.2231 76.1748 73.7083 76.377 74.0318 76.4174C74.234 76.4174 74.4361 76.377 74.5574 76.2152L75.2448 75.447L76.7409 76.8217H76.8218ZM71.6462 76.2557L70.8779 75.7704C70.8375 75.9322 70.7566 76.0939 70.7566 76.1748C70.6758 76.4983 70.5949 76.7409 70.5949 76.943C70.5949 77.1048 70.5949 77.2261 70.5949 77.3474C70.5949 77.5091 70.5949 77.59 70.6758 77.6304C70.7162 77.6709 70.8375 77.6304 70.9992 77.5495C71.161 77.4687 71.2823 77.3069 71.4036 77.1856C71.4844 77.1048 71.5249 76.9835 71.5653 76.8622C71.6057 76.7409 71.6462 76.4983 71.6866 76.2152L71.6462 76.2557Z" fill="white"/>
<path d="M79.2883 74.6787L76.4983 77.226L75.1235 75.73L77.9135 73.1826L79.2883 74.6787Z" fill="white"/>
<path d="M81.8354 72.6165L78.8837 75.0021L77.5898 73.4252L80.5415 71.0396L81.8354 72.6165Z" fill="white"/>
<path d="M84.4638 70.7159L81.3908 72.9398L80.1777 71.282L83.2507 69.0581L84.4638 70.7159Z" fill="white"/>
<path d="M88.1836 68.2903L83.9784 70.9589L82.8867 69.2607L86.4045 67.0368C86.1619 66.7942 85.9193 66.592 85.6767 66.4707C85.5554 66.3899 85.2723 66.309 84.8276 66.1877L84.4232 64.3682C84.9893 64.5299 85.4341 64.7321 85.8384 65.0555C86.2428 65.379 86.6471 65.9047 87.1323 66.6729L88.1836 68.3307V68.2903ZM88.7901 69.4629L88.871 71.2015L87.6175 71.3228L87.6984 72.6572L86.0406 72.8189L85.9597 71.1611L87.2536 70.9994L87.1727 69.6246L88.7901 69.5033V69.4629Z" fill="white"/>
<path d="M91.0546 66.7537L87.739 68.5733L86.7686 66.7941L90.0842 64.9746L91.0546 66.7537Z" fill="white"/>
<path d="M93.9657 65.3386L90.5692 66.9964L89.6797 65.1768L93.0762 63.519L93.9657 65.3386Z" fill="white"/>
<path d="M96.9983 64.0851L93.5209 65.5407L92.7527 63.6807L96.23 62.2251L96.9983 64.0851Z" fill="white"/>
<path d="M100.071 62.9932L96.5131 64.2466L95.8257 62.3462L99.3839 61.0928L100.071 62.9932Z" fill="white"/>
<path d="M103.751 61.9017L99.5458 63.1147L98.9797 61.1738L102.255 60.2034L99.9097 55.6344L99.3436 55.4726C99.2628 55.1896 99.2223 54.9065 99.2223 54.5831C99.2223 54.1787 99.3032 53.6935 99.4245 53.1274L99.8289 53.2083C99.8289 53.2083 99.8289 53.3296 99.8289 53.4509C99.8693 53.6127 100.031 53.734 100.274 53.8148C100.516 53.8957 100.84 53.9361 101.284 53.9766C101.325 54.3 101.365 54.6235 101.325 54.947C101.325 55.2705 101.325 55.5535 101.244 55.7961H100.921L103.064 59.9608L103.63 61.9017H103.751Z" fill="white"/>
<path d="M107.673 61.0523L106.581 61.2949C105.975 61.4162 105.489 61.2949 105.126 60.8905C104.721 60.4458 104.357 59.5967 104.115 58.3836L103.67 56.3215C103.549 55.8363 103.427 55.5128 103.225 55.2702C103.144 55.1489 102.942 55.0276 102.619 54.8254L103.063 52.8037C103.468 53.1272 103.751 53.4507 103.953 53.8146C104.196 54.2189 104.398 54.785 104.519 55.4724L104.843 56.8876C105.085 57.8984 105.287 58.5858 105.53 58.9497C105.732 59.2327 105.934 59.3541 106.177 59.3136L107.269 59.071L107.713 61.0523H107.673Z" fill="white"/>
<path d="M110.867 60.5267L107.147 61.1332L106.824 59.1519L110.544 58.5454L110.867 60.5267Z" fill="white"/>
<path d="M114.102 60.1628L110.342 60.5672L110.099 58.5455L113.86 58.1411L114.102 60.1628Z" fill="white"/>
<path d="M117.337 59.9607L113.576 60.2033L113.455 58.1816L117.215 57.939L117.337 59.9607Z" fill="white"/>
<path d="M124.13 60.0416C123.564 60.0416 122.917 59.9203 122.189 59.7181C121.542 59.5159 120.935 59.3138 120.45 59.0712C120.127 59.5159 119.763 59.7585 119.278 59.8798C119.075 59.9203 118.752 59.9607 118.388 59.9607H116.811V57.8986H118.388C118.873 57.8986 119.237 57.8986 119.52 57.7773C119.884 57.656 120.127 57.4134 120.288 57.0494C120.612 56.4429 121.016 55.9173 121.461 55.5129C121.906 55.149 122.229 54.9873 122.553 54.9873C122.836 54.9873 123.159 55.3916 123.523 56.1599C123.927 56.9686 124.13 57.7368 124.089 58.4242V60.0416H124.13ZM122.674 57.7368C122.674 57.6155 122.553 57.4538 122.351 57.1708C122.108 56.8877 121.865 56.726 121.704 56.726C121.501 56.726 121.299 56.9281 121.178 57.3729C121.461 57.4942 121.663 57.5751 121.784 57.6155C122.229 57.7773 122.431 57.8581 122.512 57.8581C122.634 57.8581 122.674 57.8581 122.674 57.7773V57.7368Z" fill="white"/>
<path d="M127.364 60.4056L123.604 60.0417L123.806 58.02L127.567 58.3839L127.364 60.4056Z" fill="white"/>
<path d="M131.165 61.012L126.839 60.3247L127.162 58.3029L130.559 58.8286L130.397 53.6934L129.952 53.2891C129.993 53.0061 130.074 52.723 130.235 52.44C130.397 52.0761 130.68 51.6717 131.044 51.1865L131.368 51.4291C131.368 51.4291 131.367 51.5504 131.287 51.6717C131.287 51.8335 131.327 51.9952 131.529 52.1974C131.691 52.3591 131.974 52.5613 132.378 52.8039C132.297 53.1274 132.176 53.4104 132.014 53.6934C131.853 53.9765 131.731 54.2191 131.57 54.4617L131.287 54.3L131.448 58.9903L131.125 61.012H131.165Z" fill="white"/>
<path d="M134.683 59.5562C134.602 60.001 134.44 60.3649 134.279 60.6884C134.076 61.0119 133.793 61.4567 133.349 61.9823L132.904 61.6993C133.146 61.0927 133.349 60.6075 133.429 60.2436C133.51 59.9606 133.551 59.5158 133.632 58.9093C133.712 58.3432 133.753 57.7367 133.793 57.1706C133.834 56.6045 133.874 55.8767 133.874 55.068C133.874 54.785 133.874 54.5828 133.874 54.502C133.874 54.3402 134.036 54.0976 134.279 53.7742C134.521 53.4507 134.845 53.0463 135.249 52.6016L135.128 55.2702C135.087 56.2811 135.006 57.1706 134.926 57.8984C134.845 58.4645 134.764 58.9902 134.642 59.5158L134.683 59.5562Z" fill="white"/>
<path d="M147.056 63.1953C146.935 63.4783 146.813 63.721 146.611 64.004C146.449 64.2466 146.288 64.4892 146.126 64.6105C145.843 64.8935 145.358 65.0553 144.711 65.0957C144.104 65.0957 143.578 65.0553 143.134 64.8531C142.77 64.6914 142.487 64.4488 142.365 64.0849C142.244 63.7614 142.285 63.357 142.446 62.9527C142.608 62.5888 142.81 62.2249 143.093 61.9419C143.376 61.6184 143.781 61.2545 144.306 60.8501L144.104 60.5671C144.266 60.4054 144.508 60.2032 144.751 59.9606C145.034 59.718 145.236 59.5158 145.438 59.3541L146.005 60.0414C146.247 60.3649 146.449 60.6884 146.651 61.0119C146.935 61.4566 147.096 61.861 147.137 62.144C147.177 62.4675 147.137 62.791 146.975 63.1549L147.056 63.1953ZM145.762 63.2762C145.762 63.1953 145.721 62.9527 145.479 62.5079C145.277 62.1036 145.034 61.6992 144.792 61.3758C144.266 61.6992 143.983 62.0227 143.821 62.3462C143.74 62.5079 143.781 62.6292 143.821 62.791C143.902 62.9527 144.023 63.074 144.225 63.1549C144.468 63.2762 144.792 63.3166 145.155 63.357C145.519 63.357 145.721 63.357 145.762 63.2762ZM149.037 57.6154L147.622 58.6667L146.813 57.6558L145.762 58.5049L144.711 57.2111L146.045 56.2002L146.894 57.1706L147.986 56.3215L149.037 57.575V57.6154Z" fill="white"/>
<path d="M152.838 69.6649C152.676 69.9479 152.312 70.1906 151.746 70.4332C151.18 70.6758 150.574 70.8375 149.967 70.9184C149.28 70.9992 148.795 70.9184 148.431 70.7566C148.026 70.514 147.662 70.1905 147.299 69.7053C147.015 69.301 146.571 68.5732 146.005 67.5219L146.53 67.2793C146.813 67.7645 147.056 68.1284 147.258 68.371C147.46 68.6136 147.703 68.8158 148.026 68.9775C148.35 69.1393 148.714 69.2606 149.118 69.2606C149.522 69.2606 150.129 69.1797 150.938 69.0584C152.07 68.8562 152.717 68.5732 152.919 68.2093C153 68.0475 153.081 67.7645 153.081 67.4006C153.081 66.9962 153.04 66.5919 152.919 66.2684L154.294 64.7319C154.455 65.2171 154.496 65.7024 154.455 66.1876C154.415 66.6728 154.253 67.158 153.97 67.6836L152.838 69.6649Z" fill="white"/>
<path d="M156.72 69.5839C156.477 69.9478 156.194 70.2308 155.911 70.4734C155.628 70.7161 155.143 70.9991 154.536 71.3226L154.253 70.9182C154.738 70.4734 155.062 70.0691 155.304 69.7456C155.466 69.503 155.709 69.0987 155.992 68.6135C156.275 68.0878 156.558 67.6026 156.801 67.077C157.043 66.5513 157.326 65.9044 157.65 65.1766C157.771 64.8935 157.852 64.7318 157.892 64.6509C157.973 64.5296 158.216 64.3679 158.539 64.1253C158.863 63.8827 159.348 63.6805 159.874 63.3975L158.782 65.8235C158.377 66.7535 157.973 67.5217 157.609 68.1687C157.326 68.6539 157.043 69.1391 156.76 69.5435L156.72 69.5839Z" fill="white"/>
<path d="M161.491 76.3771C161.289 76.6197 160.884 76.7814 160.278 76.9431C159.671 77.1049 159.065 77.1453 158.458 77.1049C157.771 77.1049 157.286 76.9027 156.962 76.6601C156.598 76.3771 156.315 75.9323 156.032 75.4066C155.83 74.9619 155.507 74.1532 155.183 73.021L155.749 72.8997C155.911 73.4254 156.073 73.8297 156.234 74.1127C156.396 74.3958 156.598 74.6384 156.881 74.8406C157.164 75.0832 157.488 75.2449 157.892 75.3258C158.297 75.4066 158.903 75.4471 159.752 75.4471C160.884 75.4471 161.612 75.2853 161.855 75.0023C161.976 74.8406 162.097 74.598 162.178 74.2341C162.259 73.8297 162.3 73.4254 162.219 73.0615L163.836 71.808C163.876 72.2932 163.836 72.7784 163.715 73.2636C163.593 73.7488 163.31 74.1936 162.946 74.6384L161.491 76.3771ZM166.06 70.2715L164.24 70.9589L163.391 69.0585L165.211 68.3711L166.06 70.2715Z" fill="white"/>
<path d="M167.152 81.4311C166.545 81.9972 165.656 82.3207 164.523 82.3207C163.391 82.3207 162.542 82.0377 162.057 81.512C161.774 81.1885 161.531 80.7438 161.369 80.1777C161.208 79.6116 161.046 78.6816 160.884 77.3473H161.41C161.531 77.9538 161.693 78.4794 161.855 78.8029C161.976 79.086 162.178 79.369 162.461 79.652C162.825 80.0159 163.27 80.299 163.796 80.5012C164.442 80.7033 165.211 80.8246 166.181 80.8246C166.019 80.6629 165.858 80.5416 165.777 80.4607C165.413 80.0564 165.251 79.652 165.292 79.2073C165.292 78.7625 165.534 78.3581 165.939 77.9942C166.464 77.4686 167.152 77.1451 167.879 76.9429C168.688 76.7408 169.295 76.7812 169.618 77.1855C169.901 77.509 169.942 77.9538 169.739 78.5199C169.537 79.086 169.173 79.652 168.607 80.1777L167.192 81.4716L167.152 81.4311ZM167.596 79.6925C168.082 79.0455 168.162 78.5603 167.839 78.1964C167.718 78.0751 167.596 78.0347 167.435 78.0347C167.273 78.0347 167.152 78.1155 167.03 78.1964C166.909 78.3177 166.869 78.4794 166.909 78.722C166.949 78.9647 167.111 79.2073 167.354 79.4499L167.556 79.652L167.596 79.6925Z" fill="white"/>
<path d="M61.2546 154.051L61.6185 153.849C62.1441 154.576 62.2654 154.617 63.2358 154.051L67.158 151.827C67.158 151.787 60.4055 152.433 60.4055 152.433L60.2437 152.15L64.2871 146.975C64.2871 146.934 61.4972 148.309 61.4972 148.309C60.6076 148.754 60.1224 149.037 59.8394 149.28C59.435 149.603 59.435 149.846 59.7585 150.574L59.3946 150.776L57.939 148.188L58.3029 147.986C58.7072 148.552 58.9903 148.673 59.3946 148.511C59.7585 148.39 60.3246 148.188 61.4972 147.622L63.5593 146.651C64.8128 146.085 64.8936 145.924 64.4893 144.953L64.8532 144.751L66.1067 146.934L62.7102 151.584L68.4923 151.14L69.7053 153.242L69.3414 153.444C68.7753 152.636 68.654 152.636 67.8049 153.161L64.0445 155.426C63.0741 155.992 63.0337 156.073 63.3976 156.962L63.0337 157.164L61.2546 154.01V154.051Z" fill="white"/>
<path d="M64.3276 158.782L64.6511 158.539C65.2576 159.227 65.3789 159.267 66.228 158.66L69.8671 155.911C70.6758 155.304 70.6758 155.143 70.1906 154.374L70.5141 154.132L72.7379 157.043L72.4145 157.286C71.808 156.598 71.6867 156.558 70.878 157.164L67.2389 159.914C66.4302 160.52 66.4302 160.642 66.9154 161.45L66.592 161.693L64.3681 158.782H64.3276Z" fill="white"/>
<path d="M78.8839 164.402C78.3987 163.957 78.1156 163.876 77.6708 164.24C77.3878 164.443 76.943 164.766 76.1748 165.534L72.7783 168.809L72.374 168.405L73.1018 160.52L71.1609 162.38C70.3927 163.108 70.0692 163.472 69.867 163.755C69.5031 164.159 69.5031 164.483 70.0692 165.17L69.7457 165.453L67.6836 163.31L68.0071 163.027C68.5327 163.472 68.8562 163.553 69.2605 163.229C69.584 162.987 69.9883 162.704 70.7566 161.976L72.5357 160.278C73.1018 159.752 73.2231 159.59 73.2635 159.227C73.3039 158.863 73.1826 158.62 72.8592 158.216L73.1826 157.933L74.7596 159.55L74.2744 166.626L75.7704 165.211C76.5387 164.483 76.8622 164.038 77.1048 163.796C77.4687 163.391 77.4282 163.068 76.8622 162.38L77.1856 162.097L79.2478 164.24L78.9243 164.523L78.8839 164.402Z" fill="white"/>
<path d="M75.0021 170.548L75.2851 170.225C76.0534 170.75 76.1747 170.75 76.8216 169.982L79.7329 166.464C80.3799 165.696 80.3394 165.534 79.6925 164.887L79.9755 164.564L82.8059 166.909L82.5229 167.233C81.7546 166.707 81.6333 166.707 80.9864 167.475L78.0751 170.993C77.4282 171.802 77.4686 171.883 78.0751 172.57L77.7921 172.893L74.9617 170.548H75.0021Z" fill="white"/>
<path d="M86.2428 171.802C86.4854 171.033 86.5663 170.022 85.7576 169.497C85.1511 169.092 84.4637 169.254 84.0998 169.78C83.7359 170.306 83.8976 170.872 84.5041 171.923C85.232 173.136 85.5554 174.187 84.9085 175.158C84.1402 176.29 82.5633 176.492 81.1077 175.522C80.7438 175.279 80.4203 174.996 80.1777 174.672C79.9351 174.389 79.8138 174.187 79.7329 174.025C79.8138 173.742 80.2586 172.772 80.582 172.125L80.9864 172.246C80.7438 173.015 80.582 174.551 81.5524 175.198C82.159 175.602 82.8463 175.481 83.2911 174.834C83.6955 174.268 83.4933 173.581 82.9676 172.691C82.2803 171.478 81.9164 170.467 82.5633 169.537C83.2911 168.446 84.7872 168.203 86.1619 169.173C86.8089 169.618 87.2537 170.225 87.4154 170.386C87.2132 170.75 86.9706 171.236 86.6067 171.923L86.2024 171.761L86.2428 171.802Z" fill="white"/>
<path d="M93.7636 176.088C93.9253 175.481 93.9253 174.996 93.8445 174.713C93.7232 174.43 93.521 174.228 92.8336 173.864L92.3484 173.621L89.7606 178.595C89.2754 179.525 89.3563 179.605 90.2863 180.212L90.0841 180.576L86.5259 178.716L86.728 178.352C87.6985 178.756 87.8198 178.756 88.305 177.826L90.8928 172.853L90.5289 172.691C89.5584 172.166 89.3158 172.206 89.0732 172.327C88.7902 172.408 88.4667 172.691 88.0624 173.176L87.658 172.974C88.1028 172.206 88.588 171.438 88.8711 170.912L89.1541 171.033C89.1541 171.357 89.3158 171.478 89.6393 171.64L94.0871 173.945C94.3701 174.106 94.5723 174.106 94.8553 174.026L95.0979 174.147C94.8553 174.592 94.451 175.602 94.1275 176.29L93.7232 176.128L93.7636 176.088Z" fill="white"/>
<path d="M100.435 184.7C100.395 184.7 100.273 184.619 100.112 184.579C98.6965 183.973 98.3326 183.528 98.1304 182.638C98.0091 182.072 97.9283 181.385 97.7665 180.657C97.6856 180.253 97.5239 180.05 97.16 179.929L96.9174 179.848L96.3513 181.466C96.0278 182.396 96.1087 182.517 96.9174 182.921L96.7557 183.326L93.2783 182.113L93.4401 181.708C94.3296 181.91 94.4913 181.87 94.8148 180.94L96.3513 176.654C96.6748 175.764 96.5939 175.603 95.7852 175.198L95.947 174.794L99.1413 175.926C100.193 176.29 100.718 176.613 101.082 177.099C101.406 177.584 101.567 178.19 101.325 178.878C100.961 179.889 100.112 180.172 99.2626 180.212C99.303 180.616 99.4648 181.506 99.6265 182.153C99.8287 182.921 99.95 183.366 100.071 183.689C100.233 184.013 100.354 184.215 100.597 184.377L100.395 184.741L100.435 184.7ZM97.4026 179.484C97.8878 179.646 98.3326 179.727 98.6561 179.606C99.1817 179.403 99.4647 179.04 99.6669 178.473C100.112 177.26 99.5456 176.573 98.8987 176.371C98.6156 176.25 98.4135 176.25 98.3326 176.29C98.2113 176.33 98.1709 176.452 98.09 176.654L97.1196 179.403L97.4026 179.484Z" fill="white"/>
<path d="M110.342 179.322C109.574 179.242 109.25 179.444 108.684 180.01C108.118 180.576 107.673 181.021 106.864 181.951C106.622 182.234 106.541 182.355 106.501 182.719L106.177 184.215C105.934 185.266 106.015 185.388 107.067 185.671L106.986 186.075L103.104 185.226L103.185 184.822C104.236 184.983 104.357 184.902 104.6 183.851L104.883 182.598C104.964 182.315 104.924 182.193 104.883 181.91C104.681 181.223 104.438 180.333 103.994 178.999C103.711 178.109 103.549 177.948 102.902 177.705L102.983 177.301L106.379 178.029L106.298 178.433C105.49 178.352 105.449 178.514 105.571 178.999C105.813 179.889 106.137 180.859 106.42 181.829C106.905 181.223 107.754 180.252 108.199 179.646C108.522 179.201 108.522 179.039 107.673 178.756L107.754 178.352L110.503 178.959L110.423 179.363L110.342 179.322Z" fill="white"/>
<path d="M119.075 179.282C121.34 179.282 123.2 180.98 123.159 183.325C123.119 185.913 121.138 187.45 118.792 187.409C116.326 187.409 114.587 185.59 114.628 183.285C114.628 181.223 116.245 179.241 119.075 179.282ZM118.833 179.807C117.579 179.807 116.528 180.98 116.488 183.083C116.488 185.104 117.418 186.843 119.035 186.883C120.248 186.883 121.259 185.832 121.299 183.608C121.299 181.223 120.288 179.807 118.833 179.807Z" fill="white"/>
<path d="M129.952 180.576C129.791 180.131 129.548 179.807 129.305 179.605C129.022 179.363 128.699 179.322 128.011 179.403L127.405 179.484C127.001 179.524 126.92 179.565 127.001 179.969L127.324 182.557L128.294 182.436C129.386 182.314 129.507 182.153 129.548 181.384H129.993C129.993 181.344 130.276 183.689 130.276 183.689H129.831C129.629 182.961 129.467 182.88 128.375 183.042L127.405 183.163L127.648 184.983C127.809 186.115 127.89 186.196 128.982 186.115V186.519C129.022 186.519 125.221 187.005 125.221 187.005V186.6C126.071 186.398 126.151 186.317 126.03 185.185L125.464 180.899C125.343 179.807 125.221 179.767 124.291 179.807V179.363C124.251 179.363 129.993 178.635 129.993 178.635C130.033 178.837 130.195 179.767 130.357 180.454L129.952 180.576Z" fill="white"/>
<path d="M140.303 177.867C140.061 177.462 139.778 177.179 139.495 177.018C139.171 176.856 138.848 176.856 138.201 177.018L137.594 177.22C137.19 177.341 137.15 177.382 137.271 177.786L138.039 180.293L138.969 180.01C140.02 179.686 140.101 179.525 140.02 178.756L140.425 178.635L141.112 180.899L140.708 181.021C140.344 180.293 140.182 180.252 139.131 180.576L138.201 180.859L138.726 182.598C139.05 183.689 139.171 183.73 140.263 183.487L140.384 183.891L136.705 185.024L136.583 184.619C137.433 184.255 137.513 184.174 137.19 183.083L135.896 178.958C135.573 177.907 135.451 177.867 134.562 178.069L134.44 177.665L139.98 175.966C140.061 176.168 140.384 177.018 140.667 177.705L140.303 177.907V177.867Z" fill="white"/>
<path d="M144.104 182.638L143.942 182.234C144.751 181.789 144.832 181.708 144.428 180.737L142.648 176.532C142.244 175.602 142.123 175.562 141.233 175.845L141.072 175.441L144.428 174.025L144.589 174.43C143.781 174.875 143.7 174.955 144.104 175.926L145.883 180.131C146.288 181.061 146.409 181.101 147.298 180.818L147.46 181.223L144.104 182.638Z" fill="white"/>
<path d="M153.121 169.861C152.595 170.225 152.434 170.467 152.676 170.993C152.798 171.316 153.04 171.842 153.525 172.772L155.871 176.856L155.385 177.139L147.905 174.511L149.239 176.856C149.765 177.786 150.048 178.19 150.25 178.473C150.574 178.918 150.857 178.999 151.665 178.595L151.868 178.958L149.28 180.414L149.078 180.05C149.644 179.646 149.805 179.363 149.563 178.878C149.401 178.514 149.239 178.028 148.714 177.099L147.501 174.955C147.137 174.268 146.975 174.106 146.652 173.985C146.328 173.864 146.045 173.904 145.56 174.106L145.358 173.742L147.299 172.61L154.051 174.794L153 172.974C152.474 172.044 152.151 171.599 151.948 171.316C151.625 170.872 151.301 170.831 150.493 171.236L150.291 170.872L152.878 169.416L153.081 169.78L153.121 169.861Z" fill="white"/>
<path d="M161.41 172.691L161.167 172.368C161.653 171.842 161.612 171.68 161.167 171.397C160.844 171.195 160.399 170.912 159.914 170.629L158.054 172.085C158.175 172.489 158.337 172.934 158.499 173.379C158.701 173.904 158.822 174.026 159.59 173.581L159.833 173.904L157.69 175.562L157.447 175.198C158.054 174.632 158.054 174.43 157.771 173.338L156.032 166.99L156.437 166.464C158.337 167.637 160.197 168.81 162.057 169.942C163.027 170.508 163.27 170.548 163.917 170.144L164.16 170.467L161.41 172.61V172.691ZM157.043 168.769C157.286 169.659 157.569 170.548 157.852 171.397L159.388 170.225L157.084 168.769H157.043Z" fill="white"/>
<path d="M166.262 157.973C165.858 158.458 165.777 158.782 166.141 159.186C166.383 159.469 166.707 159.914 167.475 160.642L170.872 163.876L170.467 164.281L162.542 163.917L164.483 165.817C165.251 166.545 165.656 166.828 165.939 167.071C166.383 167.394 166.666 167.394 167.354 166.788L167.677 167.071L165.615 169.214L165.292 168.931C165.696 168.405 165.777 168.041 165.413 167.677C165.17 167.354 164.847 166.949 164.079 166.222L162.3 164.523C161.734 163.998 161.572 163.876 161.208 163.836C160.844 163.836 160.601 163.957 160.197 164.281L159.874 163.998L161.41 162.38L168.526 162.542L167.03 161.087C166.262 160.359 165.817 160.035 165.534 159.833C165.09 159.51 164.766 159.55 164.119 160.157L163.796 159.873L165.858 157.73L166.181 158.014L166.262 157.973Z" fill="white"/>
<path d="M175.481 154.011C175.886 154.496 176.452 155.305 176.654 155.709C176.533 155.992 176.047 157.124 175.562 157.812C173.662 160.48 171.155 160.44 169.618 159.348C167.597 157.933 167.354 155.345 169.052 152.959C169.659 152.11 170.387 151.504 170.629 151.261C171.236 151.544 171.721 151.787 172.408 152.191L172.206 152.596C170.791 152.07 169.901 152.676 169.335 153.445C168.284 154.941 169.012 156.679 170.467 157.69C172.247 158.944 174.147 158.782 175.158 157.367C175.764 156.518 175.683 155.507 175.036 154.253L175.441 154.011H175.481Z" fill="white"/>
<path d="M179.363 146.854C179.808 147.177 180.657 147.905 180.94 148.148L178.028 153.687L177.665 153.485C178.069 152.515 178.069 152.393 177.179 151.908L173.176 149.805C172.246 149.32 172.125 149.401 171.68 150.129L171.316 149.927L173.985 144.832C174.187 144.913 174.955 145.277 175.643 145.56L175.481 145.964C175.077 145.883 174.632 145.843 174.309 145.964C174.025 146.045 173.783 146.328 173.5 146.894L173.217 147.46C173.015 147.865 173.015 147.905 173.338 148.107L175.602 149.28L176.007 148.552C176.492 147.662 176.492 147.46 175.845 146.935L176.047 146.53L178.19 147.662L177.988 148.067C177.139 147.824 177.018 147.945 176.573 148.835L176.169 149.563L177.948 150.493C178.433 150.776 178.756 150.857 178.958 150.695C179.161 150.533 179.363 150.169 179.565 149.765C179.848 149.239 180.01 148.795 179.848 148.39C179.727 148.067 179.484 147.662 179.12 147.218L179.403 146.894L179.363 146.854Z" fill="white"/>
</g>
<defs>
<filter id="filter0_d_1086_14337" x="0" y="0" width="239.041" height="239.041" filterUnits="userSpaceOnUse" color-interpolation-filters="sRGB">
<feFlood flood-opacity="0" result="BackgroundImageFix"/>
<feColorMatrix in="SourceAlpha" type="matrix" values="0 0 0 0 0 0 0 0 0 0 0 0 0 0 0 0 0 0 127 0" result="hardAlpha"/>
<feOffset/>
<feGaussianBlur stdDeviation="22.5"/>
<feColorMatrix type="matrix" values="0 0 0 0 0.704167 0 0 0 0 0.858 0 0 0 0 1 0 0 0 1 0"/>
<feBlend mode="normal" in2="BackgroundImageFix" result="effect1_dropShadow_1086_14337"/>
<feBlend mode="normal" in="SourceGraphic" in2="effect1_dropShadow_1086_14337" result="shape"/>
</filter>
</defs>
</svg>
