<svg width="239" height="239" viewBox="0 0 239 239" fill="none" xmlns="http://www.w3.org/2000/svg">
<g filter="url(#filter0_d_5050_23742)">
<g clip-path="url(#clip0_5050_23742)">
<path d="M119.5 65.0391C89.4592 65.0391 65.0396 89.4587 65.0396 119.5C65.0396 149.541 89.4592 173.96 119.5 173.96C149.541 173.96 173.961 149.541 173.961 119.5C173.961 89.4587 149.541 65.0391 119.5 65.0391Z" fill="white"/>
<path d="M119.5 47.1904C79.6402 47.1904 47.1902 79.6405 47.1902 119.5C47.1902 159.36 79.6402 191.81 119.5 191.81C159.36 191.81 191.81 159.36 191.81 119.5C191.81 79.6405 159.396 47.1904 119.5 47.1904ZM119.5 176.187C88.2546 176.187 62.8494 150.782 62.8494 119.537C62.8494 88.2914 88.2546 62.8497 119.5 62.8497C150.746 62.8497 176.151 88.2549 176.151 119.5C176.151 150.746 150.746 176.151 119.5 176.151V176.187Z" fill="#005FAD"/>
<path d="M74.6028 170.931L73.5443 169.945C74.9679 168.449 76.3914 166.916 77.815 165.419L73.1428 168.12C73.1063 168.12 73.0333 168.12 72.9968 168.12C72.9603 168.12 72.8873 168.12 72.8508 168.084C72.7778 168.084 72.7413 168.011 72.6682 167.938C72.5952 167.865 72.1572 167.427 72.0477 167.354C71.9747 167.244 71.8652 167.171 71.8287 167.098C71.7922 167.025 71.7192 166.952 71.7192 166.916C71.7192 166.843 71.6827 166.806 71.6827 166.77C71.6827 166.733 71.6827 166.697 71.6827 166.66L74.1283 162.061C72.7048 163.448 71.2812 164.835 69.8576 166.259C69.5291 165.93 69.2006 165.601 68.8721 165.273L73.8363 160.418C73.9823 160.272 74.1283 160.199 74.2743 160.199C74.4203 160.199 74.5663 160.272 74.6758 160.382L75.3694 161.075C75.4789 161.221 75.5884 161.367 75.7344 161.513C75.8804 161.659 75.9169 161.951 75.8074 162.134C75.6979 162.316 75.6614 162.389 75.6249 162.499C74.8584 163.922 74.0553 165.273 73.2523 166.551C74.6758 165.711 76.1359 164.835 77.5595 163.995C78.983 163.156 78.0705 163.886 78.253 164.105L78.5815 164.433L79.2751 165.163C79.3481 165.236 79.3846 165.309 79.4211 165.382C79.4211 165.455 79.4576 165.528 79.4576 165.601C79.4576 165.674 79.4576 165.747 79.3846 165.82C79.3846 165.893 79.3116 165.966 79.2386 166.039C77.7055 167.682 76.1724 169.325 74.6393 170.967L74.6028 170.931Z" fill="white"/>
<path d="M77.3405 172.975C76.939 172.683 76.5375 172.391 76.136 172.062C77.7056 170.128 79.2751 168.23 80.8082 166.295C81.2097 166.587 81.6112 166.915 81.9763 167.207C80.4432 169.106 78.8736 171.04 77.3405 172.938V172.975Z" fill="white"/>
<path d="M86.7944 179.29C86.3564 179.071 85.8819 178.816 85.4438 178.597C86.6849 176.443 87.8895 174.289 89.1305 172.136C89.5685 172.391 90.0066 172.61 90.4446 172.866C89.24 175.019 87.999 177.136 86.7944 179.29Z" fill="white"/>
<path d="M139.466 184.839C138.992 184.985 138.517 185.167 138.043 185.313C137.349 182.94 136.692 180.531 135.999 178.159C136.473 178.013 136.948 177.867 137.422 177.721C138.116 180.093 138.773 182.466 139.466 184.839Z" fill="white"/>
<path d="M83.7283 177.647C83.1807 177.246 82.6332 176.844 82.0857 176.406L83.0347 170.42C82.0127 171.989 80.9541 173.559 79.9321 175.092C79.5306 174.763 79.1291 174.471 78.7275 174.143C80.1146 172.135 81.5017 170.128 82.8522 168.12L83.3268 168.449L83.9838 168.887C84.1663 168.996 84.3123 169.142 84.4948 169.252C84.2028 171.223 83.9473 173.194 83.6553 175.165C84.6773 173.595 85.7359 172.062 86.7579 170.493C87.1594 170.821 87.561 171.113 87.926 171.442C86.5389 173.486 85.1153 175.53 83.7283 177.574V177.647Z" fill="white"/>
<path d="M147.022 182.21C146.365 182.429 145.745 182.648 145.088 182.867C143.628 181.48 142.131 180.093 140.671 178.706C141.364 180.458 142.094 182.174 142.788 183.926C142.314 184.072 141.802 184.218 141.328 184.364C140.452 182.101 139.466 179.765 138.59 177.502C138.773 177.429 138.992 177.319 139.174 177.246L139.904 176.954C140.087 176.881 140.306 176.772 140.488 176.735C141.948 178.086 143.482 179.582 144.978 180.933C144.285 179.217 143.555 177.465 142.861 175.75C143.336 175.604 143.81 175.458 144.321 175.312C145.234 177.611 146.11 179.947 147.022 182.247V182.21Z" fill="white"/>
<path d="M160.382 174.435C159.798 174.8 159.214 175.165 158.666 175.53C156.914 174.508 155.162 173.486 153.41 172.5C154.505 174.033 155.564 175.566 156.659 177.099C156.221 177.355 155.783 177.61 155.345 177.866C153.958 175.858 152.498 173.814 151.111 171.807C151.257 171.697 151.476 171.551 151.622 171.442L152.279 170.967C152.461 170.857 152.607 170.711 152.79 170.602C154.542 171.588 156.367 172.683 158.119 173.668C157.024 172.135 155.965 170.638 154.87 169.105C155.308 168.85 155.746 168.594 156.184 168.339C157.571 170.383 158.995 172.427 160.382 174.471V174.435Z" fill="white"/>
<path d="M104.644 186.153C104.644 185.678 104.644 185.277 104.644 184.948C104.644 184.547 104.644 184.291 104.607 183.962C104.571 183.597 104.534 183.415 104.461 183.305C104.206 182.904 103.658 182.831 103.366 182.794C103.147 182.758 102.965 182.758 102.819 182.794C102.6 183.707 102.417 184.62 102.198 185.532C101.687 185.423 101.213 185.277 100.702 185.167C101.322 182.794 101.943 180.422 102.563 178.013C103.476 178.122 104.206 178.268 104.753 178.414C106.213 178.779 106.505 179.035 106.688 179.217C107.235 179.838 107.272 180.604 107.272 180.714C107.272 181.59 106.724 182.174 106.505 182.393C106.213 182.721 105.885 182.904 105.666 183.013C105.812 183.123 105.994 183.269 106.104 183.561C106.177 183.707 106.177 183.889 106.177 184.181C106.177 184.547 106.177 184.62 106.177 185.058C106.177 185.35 106.177 185.386 106.177 185.715C106.177 186.043 106.177 186.299 106.177 186.445C105.666 186.335 105.155 186.262 104.644 186.153ZM103.731 179.473C103.512 180.203 103.33 180.896 103.111 181.626C103.804 181.845 104.534 181.882 105.155 181.736C105.228 181.699 105.374 181.59 105.52 181.444C105.556 181.371 105.702 181.188 105.739 180.933C105.739 180.933 105.775 180.641 105.629 180.312C105.41 179.838 104.68 179.509 103.731 179.473Z" fill="white"/>
<path d="M122.201 183.999C122.201 185.313 122.274 186.371 121.507 187.101C120.741 187.868 119.609 187.831 119.025 187.831C118.405 187.831 117.638 187.831 116.981 187.32C116.032 186.554 116.032 185.167 116.032 183.999C116.032 182.794 116.032 181.663 116.872 180.896C117.675 180.166 118.77 180.166 119.208 180.166C119.719 180.166 120.522 180.166 121.215 180.714C122.128 181.444 122.165 182.685 122.201 183.962V183.999ZM120.558 184.035C120.558 182.831 120.558 182.247 120.157 181.882C119.755 181.553 119.244 181.59 119.171 181.59C119.025 181.59 118.514 181.626 118.186 181.955C118.003 182.137 117.857 182.393 117.821 184.035C117.821 185.787 117.967 186.043 118.186 186.189C118.514 186.481 119.025 186.481 119.171 186.517C119.354 186.517 119.755 186.517 120.084 186.335C120.558 186.006 120.595 185.349 120.595 184.072L120.558 184.035Z" fill="white"/>
<path d="M95.0438 176.661L95.7739 175.53C94.8613 175.055 94.1678 174.654 93.5838 174.362C92.8172 173.96 92.4887 173.778 91.9777 173.814C91.2841 173.887 90.8461 174.398 90.7366 174.544C90.2621 175.092 90.0066 175.931 90.2256 176.661C90.4811 177.501 91.3572 178.231 91.7952 178.559C92.1237 178.815 92.4157 179.034 92.4887 179.399C92.4887 179.691 92.3792 180.056 92.1237 180.202C91.9412 180.311 91.7222 180.348 91.4302 180.275C90.4446 180.092 89.4226 179.253 89.0575 178.924C88.8385 179.289 88.583 179.654 88.364 179.983C89.021 180.494 89.6051 180.859 90.0066 181.078C90.8096 181.516 91.2111 181.735 91.7222 181.735C91.9777 181.735 92.7442 181.735 93.3282 181.151C94.0583 180.457 94.0948 179.362 93.8393 178.669C93.8028 178.523 93.7298 178.413 93.6933 178.34C93.4012 177.793 93.0727 177.647 92.4157 177.026C91.8682 176.479 91.8317 176.333 91.8317 176.187C91.8317 175.895 91.9412 175.53 92.2332 175.384C92.4887 175.274 92.7442 175.384 92.9267 175.42C93.7663 175.749 94.6423 176.26 95.1533 176.625L95.0438 176.661Z" fill="white"/>
<path d="M101.87 177.683L101.395 178.961L99.3875 178.231L97.3069 183.962L95.7373 183.414L97.7814 177.647L95.8468 176.953L96.2848 175.676L101.87 177.683Z" fill="white"/>
<path d="M131.728 186.772L133.407 186.553L132.86 183.341C133.772 183.195 134.648 183.049 135.561 182.903L135.378 181.589C134.466 181.735 133.553 181.881 132.604 182.027L132.385 180.604C132.385 180.458 132.458 180.312 132.604 180.312C133.48 180.166 134.32 180.02 135.196 179.874C135.159 179.436 135.086 178.998 135.05 178.56C134.539 178.633 133.772 178.779 132.86 178.961C131.399 179.253 131.253 179.399 131.144 179.472C130.56 180.056 130.852 181.042 131.217 183.378C131.363 184.254 131.545 185.385 131.691 186.809L131.728 186.772Z" fill="white"/>
<path d="M123.661 187.612H125.34L125.231 184.364C126.143 184.364 127.056 184.327 127.968 184.291V182.94C127.056 182.94 126.107 182.977 125.194 183.013V181.59C125.158 181.444 125.267 181.334 125.413 181.298C126.289 181.298 127.165 181.225 128.041 181.188C128.041 180.75 128.041 180.312 128.041 179.874C127.494 179.874 126.727 179.874 125.815 179.984C124.318 180.093 124.172 180.203 124.063 180.276C123.406 180.787 123.552 181.772 123.625 184.145C123.625 185.021 123.661 186.189 123.625 187.612H123.661Z" fill="white"/>
<path d="M114.353 180.02H112.711L110.703 183.159L109.535 179.473L107.856 179.29L109.718 184.108L109.389 187.028L110.813 187.247L111.105 184.656L114.353 180.02Z" fill="white"/>
<path d="M148.738 172.975L146.876 174.034L148.19 181.772L149.504 181.115L149.212 178.961L151.366 177.72L152.972 179.326L154.213 178.487L148.701 172.938L148.738 172.975ZM148.884 177.757L148.336 174.581L150.526 176.808L148.884 177.72V177.757Z" fill="white"/>
<path d="M165.748 169.909L164.799 169.069C164.543 169.398 164.142 169.872 163.557 170.383C163.046 170.785 162.791 171.004 162.462 171.004C161.878 171.004 161.44 170.566 160.747 169.763C159.871 168.777 159.433 168.303 159.506 167.719C159.579 167.244 159.98 166.879 160.783 166.113C161.148 165.748 161.513 165.492 161.732 165.346C161.44 165.054 161.148 164.726 160.856 164.434C160.564 164.58 160.199 164.799 159.761 165.127C159.323 165.456 158.885 165.821 158.52 166.368C158.374 166.587 158.009 167.135 157.973 167.828C157.863 169.142 158.885 170.201 159.615 170.931C160.345 171.697 161.148 172.5 162.243 172.464C162.973 172.464 163.557 172.026 164.178 171.551C164.981 170.967 165.456 170.31 165.748 169.836V169.909Z" fill="white"/>
<path d="M165.93 161.149L165.091 160.272C164.689 160.637 164.105 161.185 163.484 161.842C162.608 162.791 162.17 163.266 162.134 163.704C162.061 164.434 162.791 165.164 164.287 166.587C166.295 168.522 166.806 168.485 167.025 168.485C167.5 168.412 167.974 167.974 168.887 167.062C169.507 166.441 170.018 165.857 170.347 165.456C170.018 165.2 169.726 164.945 169.398 164.653L167.427 166.624C167.208 166.843 166.879 166.843 166.697 166.624L165.748 165.675L167.828 163.521L166.879 162.536L164.799 164.689L163.74 163.631L165.967 161.149H165.93Z" fill="white"/>
<path d="M146.986 86.174C146.329 86.5026 145.38 86.5026 145.38 86.5026C142.314 92.8173 140.087 92.7078 140.087 92.7078C137.933 93.1094 138.225 92.6348 138.225 92.6348C140.452 88.4006 138.079 85.809 133.955 85.517C129.83 85.225 125.523 91.9048 125.523 91.9048C125.158 91.5398 125.048 90.4082 125.048 90.4082V87.8531H123.041V90.6637C123.041 92.7443 120.595 92.8539 120.595 92.8539C119.5 92.8539 118.88 92.2698 118.515 91.6493C118.15 91.0288 118.077 90.5542 118.077 89.9702V79.7862H115.959V88.9117C115.959 90.4082 115.083 91.7953 113.733 92.4158C112.382 93.0364 113.404 92.5253 113.404 92.5253C110.594 93.4014 109.389 92.1968 109.389 92.1968C110.667 90.5177 112.93 90.5542 112.93 90.5542V88.6562C111.433 88.6562 107.747 86.7946 106.396 86.101C105.848 85.809 105.264 85.59 104.644 85.517C104.023 85.444 103.293 85.444 103.293 85.444C101.87 85.5535 100.994 86.247 100.41 87.0136C99.8257 87.7801 99.6067 88.6562 99.5702 89.5687V90.3352H101.468C101.614 87.4881 103.841 87.4881 103.841 87.4881C105.812 87.6341 108.805 89.7147 108.805 89.7147C108.513 90.2622 105.885 91.9778 105.885 91.9778C105.702 92.0873 105.483 92.2333 105.191 92.3793C104.425 92.6713 103.622 92.7808 102.819 92.7808L99.8987 92.7078C98.4751 92.7078 97.2706 91.6493 96.9786 90.2622C96.9786 90.2257 96.9786 90.1527 96.9786 90.1162V82.8889H94.825V83.9474C92.3428 84.2029 87.5976 86.9771 88.5832 89.8972C89.4592 92.5618 92.5618 92.4523 92.5618 92.4523C94.3869 92.4523 95.409 91.9048 95.409 91.9048C95.5915 92.6348 96.066 93.2189 96.577 93.6204C97.4531 94.3504 98.5846 94.6789 99.7162 94.7154L104.023 94.7884C105.921 94.6059 107.418 93.4744 107.418 93.4744C108.696 94.7519 111.689 94.7884 111.689 94.7884C114.755 95.0075 116.689 92.7808 116.689 92.7808C118.259 95.0805 120.413 94.8614 120.413 94.8614C122.822 94.9345 123.917 93.5839 123.917 93.5839C124.063 93.7299 124.282 93.8759 124.501 93.9854C125.413 94.5329 126.508 94.7884 127.567 94.7884H133.809C136.218 94.6059 136.948 93.6569 136.948 93.6569L137.313 94.7884C142.022 95.2265 142.715 93.6204 142.715 93.6204C144.248 94.971 145.927 95.117 146.475 95.117C147.022 95.117 150.125 95.3725 150.746 92.0508C151.366 88.7292 147.059 86.174 147.059 86.174H146.986ZM94.8615 89.9337C94.8615 89.9337 94.1679 90.5907 92.4888 90.5907C90.8098 90.5907 89.9702 89.5687 91.1748 88.1816C92.3793 86.8311 93.5474 86.4661 94.825 86.1375V89.9337H94.8615ZM132.896 92.8539H127.567C131.035 87.1961 134.174 87.4516 134.174 87.4516C136.984 87.4881 136.984 89.8242 136.984 89.8242C137.021 91.0288 136.218 91.7953 135.415 92.2333C134.612 92.6713 133.809 92.8174 132.933 92.8174L132.896 92.8539ZM148.738 91.7588C148.519 93.1094 146.73 93.1459 146.73 93.1459C145.124 93.2919 144.212 92.2698 144.212 92.2698C145.015 91.5033 146.73 88.4371 146.73 88.4371C146.73 88.4371 148.92 90.4082 148.738 91.7588ZM96.3945 79.8592L94.898 81.3558L93.4014 79.8592L94.898 78.3627L96.3945 79.8592ZM93.1094 79.8227L91.6128 81.3193L90.1162 79.8227L91.6128 78.3262L93.1094 79.8227ZM150.746 114.134H148.628V99.2052H150.746V114.134ZM150.417 138.043H148.3V123.114H150.417V138.043ZM143.92 99.2052V109.572C143.92 111.287 142.788 112.346 141.255 112.273C139.759 112.236 138.81 110.959 138.81 110.959C139.248 109.864 138.992 108.294 138.992 108.294C138.919 107.382 137.933 104.717 133.736 104.936C129.538 105.118 125.705 111.397 125.705 111.397C125.669 111.324 125.596 111.251 125.559 111.141C125.34 110.703 125.231 110.265 125.231 109.791L125.158 107.126L124.026 106.104H119.208L118.223 107.856C119.792 109.718 119.354 112.601 119.354 112.601C118.989 116.397 114.134 116.835 114.134 116.835L114.244 118.807C120.595 118.259 121.179 113.587 121.179 113.587C121.179 113.587 121.398 111.981 121.289 110.703C121.179 109.426 120.632 108.002 120.632 108.002H123.15V109.462C122.968 114.28 126.8 114.28 126.8 114.28H133.918C135.67 114.28 137.568 112.711 137.568 112.711C139.175 114.609 141.803 114.244 141.803 114.244C144.029 114.061 145.051 112.711 145.562 111.506C146.073 110.302 146 110.046 146 109.28V99.2052H143.883H143.92ZM137.13 109.864C136.765 111.397 135.123 111.981 134.356 112.163C134.137 112.2 133.918 112.236 133.699 112.236H127.713C131.181 106.323 134.356 106.725 134.356 106.725C135.962 106.725 136.656 107.564 136.948 108.258C137.167 108.769 137.203 109.316 137.094 109.864H137.13ZM127.238 105.045L125.669 103.476L127.238 101.906L128.808 103.476L127.238 105.045ZM115.558 114.134H113.441V99.2052H115.558V114.134ZM106.213 105.228C106.213 105.228 107.345 104.644 109.426 104.717L109.499 103.731C109.499 103.731 107.528 103.622 107.564 102.636C107.564 102.636 107.491 101.541 109.243 101.833V100.884C109.243 100.884 106.505 100.446 106.505 102.563C106.505 102.563 106.505 103.184 106.944 103.804C106.944 103.804 105.994 104.133 105.848 104.315L106.213 105.228ZM108.659 107.272L110.411 106.688C110.411 106.688 111.324 108.769 111.141 110.156C110.959 111.543 110.922 114.134 106.469 114.244C106.469 114.244 103.439 114.463 102.454 112.528C102.454 112.528 101.249 114.098 98.1466 114.244H92.7809C92.7809 114.244 86.7946 113.806 89.0577 106.798L90.8828 107.163C90.8828 107.163 90.4447 109.243 90.7003 110.448C90.9558 111.652 92.4158 112.127 93.0364 112.236C93.6569 112.346 96.9786 112.273 98.1466 112.236C99.3147 112.2 99.1322 112.163 99.6067 112.017C100.446 111.762 101.505 111.178 101.505 109.973V107.053H103.549V109.462C103.549 110.046 103.658 110.63 103.914 111.141C104.169 111.652 104.461 112.017 104.936 112.09C105.994 112.309 107.382 112.2 107.747 112.09C108.112 111.981 110.229 111.616 108.623 107.236L108.659 107.272ZM96.066 118.88L94.4964 117.31L96.066 115.74L97.6356 117.31L96.066 118.88ZM95.19 124.683L93.6204 123.114L95.19 121.544L96.7595 123.114L95.19 124.683ZM92.0143 124.683L90.4447 123.114L92.0143 121.544L93.5839 123.114L92.0143 124.683ZM125.669 126.8L124.099 125.231L125.669 123.661L127.238 125.231L125.669 126.8ZM122.493 126.8L120.924 125.231L122.493 123.661L124.063 125.231L122.493 126.8ZM102.563 143.117L100.994 141.547L102.563 139.978L104.133 141.547L102.563 143.117ZM99.3877 143.117L97.8181 141.547L99.3877 139.978L100.957 141.547L99.3877 143.117ZM145.745 123.114H143.628V132.495C143.701 133.809 143.044 134.685 142.35 135.232C141.62 135.78 140.708 136.035 139.795 136.035H138.152C140.197 133.517 140.014 130.487 140.014 130.487L138.883 129.356H130.597V131.29H131.655C131.29 133.553 133.225 136.035 133.225 136.035L127.969 136.108V129.502L126.873 128.553H123.15C121.325 128.699 120.595 129.684 120.303 130.633C119.975 131.801 120.34 133.042 121.143 133.918C121.617 134.429 122.201 134.758 122.603 134.94C123.296 135.269 124.902 135.926 124.902 135.926C124.902 135.926 121.216 136.145 119.062 136.035C116.908 135.926 116.981 133.444 116.981 133.444V123.041H115.01C115.01 123.041 114.791 131.181 115.01 134.356C115.229 137.532 118.442 137.933 118.442 137.933H124.939C126.399 137.787 127.275 136.948 127.275 136.948V137.933H134.137C134.94 137.933 135.78 137.495 135.78 137.495C136.948 138.298 140.708 138.006 140.708 138.006C145.015 137.167 145.599 134.247 145.635 133.115L145.745 123.077V123.114ZM125.961 133.991C125.377 134.028 123.187 133.006 123.187 133.006C123.187 133.006 122.238 132.677 122.165 131.728C122.165 131.254 122.384 130.962 122.676 130.779C122.931 130.597 123.223 130.524 123.552 130.524H125.961V133.991ZM135.561 135.342C135.561 135.342 133.553 134.356 133.663 131.363H137.933C137.933 131.363 137.495 134.283 135.561 135.342ZM110.046 131.655L111.543 130.56C111.543 130.56 113.112 132.02 113.039 135.962C112.966 139.905 109.9 142.387 105.666 142.715V140.708C105.666 140.708 109.645 140.598 110.849 137.313C111.068 136.692 111.141 136.072 111.105 135.415C111.068 134.502 110.849 133.006 110.046 131.692V131.655ZM106.798 129.94L104.972 130.414C105.483 131.655 105.702 133.261 105.702 134.539C105.702 135.159 105.264 135.561 104.863 135.816C104.498 136.035 104.06 136.145 103.658 136.145C102.892 136.181 101.176 136.254 99.6067 136.145C99.4242 136.145 99.2782 136.108 99.1322 136.072C98.1101 135.853 97.4166 134.904 97.4166 133.882V126.143H95.263V127.202C95.263 127.202 87.8531 128.991 89.0942 133.188C90.3352 137.386 95.555 135.159 95.555 135.159C96.431 137.86 98.8401 137.97 98.8401 137.97H104.498C107.674 137.532 107.82 134.794 107.82 134.794C108.039 132.166 106.871 129.903 106.871 129.903L106.798 129.94ZM95.2265 133.042C95.2265 133.042 91.9413 134.794 91.0653 132.787C91.0653 132.787 90.2987 130.56 95.2265 129.319V133.042Z" fill="#043B65"/>
<path d="M158.484 65.4414C157.9 64.4558 156.294 64.0908 155.126 64.8573C153.958 65.6239 153.447 68.1425 155.965 68.9455C155.965 68.9455 155.527 69.6755 154.323 69.274C153.118 68.8725 152.315 68.252 152.315 68.252L151.549 69.3835C151.549 69.3835 154.359 71.8657 156.549 70.0771C158.739 68.325 159.068 66.4634 158.484 65.4414ZM156.951 67.9235L155.929 67.2299C155.71 67.0474 155.527 66.8284 155.491 66.5364C155.491 66.2444 155.6 66.0619 155.746 65.9159C156.038 65.6969 156.44 65.6969 156.768 65.8429C158.009 66.4999 156.914 67.9235 156.914 67.9235H156.951Z" fill="white"/>
<path d="M154.578 62.1559C155.022 62.1559 155.381 61.7963 155.381 61.3528C155.381 60.9093 155.022 60.5498 154.578 60.5498C154.135 60.5498 153.775 60.9093 153.775 61.3528C153.775 61.7963 154.135 62.1559 154.578 62.1559Z" fill="white"/>
<path d="M153.118 62.5209L154.323 63.1779C154.323 63.1779 153.556 67.2296 150.745 67.8136C150.745 67.8136 149.103 68.1421 147.789 67.2661L148.409 65.9885C148.409 65.9885 150.052 66.8281 151.074 66.1345C152.096 65.4775 152.826 63.9079 153.155 62.4844L153.118 62.5209Z" fill="white"/>
<path d="M151.293 57.666L152.534 58.323L148.921 65.2219L147.752 64.5283L151.293 57.666Z" fill="white"/>
<path d="M146.876 59.4545L148.154 59.8925C148.154 59.8925 148.008 62.1191 146.767 63.6522C145.927 64.7107 144.504 65.1487 143.19 64.8932C142.898 64.8202 142.569 64.7472 142.204 64.6377L142.788 63.3967C142.788 63.3967 144.212 63.9077 145.051 63.4332C145.891 62.9586 146.803 61.2066 146.876 59.418V59.4545Z" fill="white"/>
<path d="M143.81 57.447C143.81 57.447 143.482 56.6075 142.423 56.8265C142.423 56.8265 141.182 57.155 140.342 58.0675C140.014 58.4326 139.758 58.9071 139.685 59.4181C139.612 59.7466 139.612 60.1116 139.758 60.4767C140.087 61.3162 140.78 62.0097 141.839 62.0097C142.898 62.0097 143.993 61.4622 144.212 60.1846C144.431 58.9071 143.81 57.447 143.81 57.447ZM142.715 60.3307C142.277 60.6592 141.657 60.5862 141.255 60.1846C141.072 60.0021 140.926 59.7831 140.963 59.4546C140.999 58.7246 142.423 58.104 142.423 58.104C142.423 58.104 143.044 59.0166 143.044 59.7466C143.044 60.4767 142.898 60.2211 142.715 60.3307Z" fill="white"/>
<path d="M142.934 55.6222C143.337 55.6222 143.664 55.2953 143.664 54.8921C143.664 54.489 143.337 54.1621 142.934 54.1621C142.531 54.1621 142.204 54.489 142.204 54.8921C142.204 55.2953 142.531 55.6222 142.934 55.6222Z" fill="white"/>
<path d="M144.358 56.0968C144.761 56.0968 145.088 55.7699 145.088 55.3668C145.088 54.9636 144.761 54.6367 144.358 54.6367C143.955 54.6367 143.628 54.9636 143.628 55.3668C143.628 55.7699 143.955 56.0968 144.358 56.0968Z" fill="white"/>
<path d="M136.181 52.1543L137.459 52.3733L135.597 59.9657L134.247 59.6371L136.181 52.1543Z" fill="white"/>
<path d="M133.115 51.4609L132.056 56.7537C131.947 57.1552 131.91 57.5202 130.706 57.4107C129.501 57.3012 128.297 54.162 128.297 54.162L126.581 53.87C124.61 56.7902 123.625 56.6077 123.625 56.6077C123.625 56.6077 123.114 56.6807 122.091 56.6077C121.069 56.5347 121.069 55.7681 121.069 55.7681L121.142 50.1104H119.609V56.2061C119.609 56.8267 119.974 57.2647 120.376 57.5202C120.85 57.8487 121.434 57.9947 122.018 57.9947H123.15C124.209 57.9947 124.975 57.4107 124.975 57.4107C127.165 59.8928 128.516 57.6297 128.516 57.6297C128.516 57.6297 129.501 58.9803 131.18 58.9073C132.86 58.8343 133.188 57.4472 133.188 57.4472L134.356 51.6434L133.042 51.4244L133.115 51.4609ZM127.932 56.9362C127.859 57.0822 127.676 57.2282 127.311 57.2282C126.618 57.2282 126.143 56.3886 126.143 56.3886L127.165 55.1841L127.932 56.5712C128.005 56.6807 128.005 56.8267 127.932 56.9362Z" fill="white"/>
<path d="M118.04 50.2197H116.689C116.689 50.2197 117.018 54.8919 116.872 55.841C116.726 56.79 115.448 56.644 115.448 56.644C114.244 56.7535 114.353 54.2714 114.353 54.2714H113.076L113.149 55.987C113.149 56.8995 112.09 56.8995 112.09 56.8995C95.5914 59.1261 84.8233 66.901 84.1298 67.339C83.4363 67.7771 82.8523 67.485 82.8523 67.485C82.8523 67.485 81.0637 65.1854 80.5526 64.4919C80.2606 64.1269 79.9686 64.2364 79.7496 64.4189C79.5306 64.6014 79.4211 64.8569 79.3481 65.1489C79.3481 65.2219 79.3481 65.2949 79.3846 65.3679L79.6766 65.7695C79.2021 66.3535 78.8736 66.9375 78.6911 67.339C78.5451 67.7041 78.4355 68.1421 78.4355 68.5436C78.5086 69.9672 79.5671 70.2592 79.5671 70.2592C81.4652 70.6972 82.6332 68.9451 82.6332 68.9451C83.4728 69.4196 84.6043 68.7626 84.6043 68.7626C97.4529 59.7102 112.455 58.2866 112.455 58.2866C113.295 58.2866 113.66 57.1916 113.66 57.1916C113.733 57.3011 113.842 57.4106 113.952 57.5201C114.353 57.8486 114.864 57.9946 115.375 57.9946H116.069C118.003 57.9946 118.259 56.0965 118.259 56.0965L118.04 50.2197ZM80.1876 68.8721C79.8226 68.8721 79.5671 68.5436 79.6401 68.1786C79.7131 67.8501 79.9321 67.3755 80.5161 66.7185C80.5161 66.7185 81.2827 67.8136 81.5017 67.9961C81.5017 67.9961 80.9542 68.9086 80.1876 68.8721Z" fill="white"/>
<path d="M77.3771 65.0399C77.8005 65.0399 78.1437 64.6967 78.1437 64.2734C78.1437 63.85 77.8005 63.5068 77.3771 63.5068C76.9538 63.5068 76.6106 63.85 76.6106 64.2734C76.6106 64.6967 76.9538 65.0399 77.3771 65.0399Z" fill="white"/>
<path d="M78.6545 64.2733C79.0778 64.2733 79.421 63.9301 79.421 63.5068C79.421 63.0834 79.0778 62.7402 78.6545 62.7402C78.2311 62.7402 77.8879 63.0834 77.8879 63.5068C77.8879 63.9301 78.2311 64.2733 78.6545 64.2733Z" fill="white"/>
<path d="M114.422 59.5592L113.402 58.7305L112.573 59.7502L113.593 60.579L114.422 59.5592Z" fill="white"/>
<path d="M115.84 59.5626L114.936 58.6592L114.033 59.5626L114.936 60.4659L115.84 59.5626Z" fill="white"/>
<path d="M102.563 173.559C102.527 173.559 102.49 173.559 102.454 173.559V173.632H102.563V173.559Z" fill="#043B65"/>
<path d="M136.765 173.595L136.838 173.449C136.765 173.449 136.692 173.486 136.583 173.522L136.765 173.595Z" fill="#043B65"/>
<path d="M165.237 117.237L155.308 121.8V152.498L145.818 147.753L136.51 152.023L119.5 144.686L102.928 151.914L93.0727 147.387L83.5823 151.695V121.8L73.6538 117.237L65.0759 121.143C65.1124 122.493 65.2219 123.844 65.3314 125.194L73.5078 121.836V148.629C76.3185 153.045 79.7131 156.987 83.6188 160.419V156.294L92.9632 152.315V167.025C96.9419 169.252 101.213 171.004 105.702 172.172L119.536 166.113L133.444 172.136C137.86 170.968 142.095 169.252 146 167.062V152.644L155.345 156.622V160.492C159.25 157.097 162.645 153.155 165.456 148.775V121.8L173.705 125.194C173.851 123.88 173.924 122.53 173.961 121.143L165.273 117.164L165.237 117.237ZM135.853 169.252L119.5 162.171L103.038 169.362V164.58L119.5 157.389L135.853 164.47V169.252ZM135.853 160.492L119.5 153.41L103.038 160.601V155.819L119.5 148.629L135.853 155.71V160.492Z" fill="#043B65"/>
<path d="M119.5 194C78.4356 194 45 160.601 45 119.5C45 78.3991 78.4356 45 119.5 45C160.564 45 194 78.4356 194 119.5C194 160.564 160.564 194 119.5 194ZM119.5 47.1901C79.6401 47.1901 47.1901 79.6401 47.1901 119.5C47.1901 159.36 79.6401 191.81 119.5 191.81C159.36 191.81 191.81 159.36 191.81 119.5C191.81 79.6401 159.396 47.1901 119.5 47.1901ZM119.5 176.187C88.2545 176.187 62.8493 150.782 62.8493 119.536C62.8493 88.291 88.2545 62.8493 119.5 62.8493C150.745 62.8493 176.151 88.2545 176.151 119.5C176.151 150.745 150.745 176.151 119.5 176.151V176.187ZM119.5 65.0394C89.4591 65.0394 65.0394 89.4591 65.0394 119.5C65.0394 149.541 89.4591 173.961 119.5 173.961C149.541 173.961 173.961 149.541 173.961 119.5C173.961 89.4591 149.541 65.0394 119.5 65.0394Z" fill="#043B65"/>
<path d="M119.5 194C78.4356 194 45 160.601 45 119.5C45 78.3991 78.4356 45 119.5 45C160.564 45 194 78.4356 194 119.5C194 160.564 160.564 194 119.5 194ZM119.5 47.1901C79.6401 47.1901 47.1901 79.6401 47.1901 119.5C47.1901 159.36 79.6401 191.81 119.5 191.81C159.36 191.81 191.81 159.36 191.81 119.5C191.81 79.6401 159.396 47.1901 119.5 47.1901ZM119.5 176.187C88.2545 176.187 62.8493 150.782 62.8493 119.536C62.8493 88.291 88.2545 62.8493 119.5 62.8493C150.745 62.8493 176.151 88.2545 176.151 119.5C176.151 150.745 150.745 176.151 119.5 176.151V176.187ZM119.5 65.0394C89.4591 65.0394 65.0394 89.4591 65.0394 119.5C65.0394 149.541 89.4591 173.961 119.5 173.961C149.541 173.961 173.961 149.541 173.961 119.5C173.961 89.4591 149.541 65.0394 119.5 65.0394Z" fill="#043B65"/>
</g>
</g>
<defs>
<filter id="filter0_d_5050_23742" x="0" y="0" width="239" height="239" filterUnits="userSpaceOnUse" color-interpolation-filters="sRGB">
<feFlood flood-opacity="0" result="BackgroundImageFix"/>
<feColorMatrix in="SourceAlpha" type="matrix" values="0 0 0 0 0 0 0 0 0 0 0 0 0 0 0 0 0 0 127 0" result="hardAlpha"/>
<feOffset/>
<feGaussianBlur stdDeviation="22.5"/>
<feColorMatrix type="matrix" values="0 0 0 0 0.704167 0 0 0 0 0.858 0 0 0 0 1 0 0 0 1 0"/>
<feBlend mode="normal" in2="BackgroundImageFix" result="effect1_dropShadow_5050_23742"/>
<feBlend mode="normal" in="SourceGraphic" in2="effect1_dropShadow_5050_23742" result="shape"/>
</filter>
<clipPath id="clip0_5050_23742">
<rect width="149" height="149" fill="white" transform="translate(45 45)"/>
</clipPath>
</defs>
</svg>
